<svg fill="none" height="226" viewBox="0 0 1006 226" width="1006" xmlns="http://www.w3.org/2000/svg" xmlns:xlink="http://www.w3.org/1999/xlink"><linearGradient id="a"><stop offset="0" stop-color="#1fb6b5"/><stop offset=".47" stop-color="#009fe8"/><stop offset="1" stop-color="#00489e"/></linearGradient><linearGradient id="b" gradientUnits="userSpaceOnUse" x1="177.532" x2="141.591" xlink:href="#a" y1="119.842" y2="45.9396"/><linearGradient id="c" gradientUnits="userSpaceOnUse" x1="109.147" x2="73.2056" xlink:href="#a" y1="153.087" y2="79.2124"/><clipPath id="d"><path d="m0 0h1006v226h-1006z"/></clipPath><g clip-path="url(#d)"><path d="m215.356 156.095c-12.789 0-18.504 9.375-24.572 9.375s-11.783-9.375-24.572-9.375c-10.395 0-18.831 8.399-18.831 18.75 0 10.35 8.436 18.749 18.831 18.749 12.789 0 18.504-9.375 24.572-9.375s11.783 9.375 24.572 9.375c10.395 0 18.831-8.399 18.831-18.749 0-10.351-8.436-18.75-18.831-18.75z" fill="#864396"/><path d="m117.092 193.567c10.4 0 18.831-8.394 18.831-18.75 0-10.355-8.431-18.749-18.831-18.749-10.399 0-18.8303 8.394-18.8303 18.749 0 10.356 8.4313 18.75 18.8303 18.75z" fill="#c9caca"/><path d="m67.9479 193.567c10.3999 0 18.8307-8.394 18.8307-18.75 0-10.355-8.4308-18.749-18.8307-18.749s-18.8307 8.394-18.8307 18.749c0 10.356 8.4308 18.75 18.8307 18.75z" fill="#c9caca"/><path d="m166.212 37.4996c10.399 0 18.83-8.3946 18.83-18.7498 0-10.35523-8.431-18.7498-18.83-18.7498-10.4 0-18.831 8.39457-18.831 18.7498 0 10.3552 8.431 18.7498 18.831 18.7498z" fill="#c9caca"/><path d="m215.356 140.623c10.4 0 18.831-8.394 18.831-18.749 0-10.356-8.431-18.75-18.831-18.75s-18.831 8.394-18.831 18.75c0 10.355 8.431 18.749 18.831 18.749z" fill="#c9caca"/><path d="m18.8307 90.4163c10.3999 0 18.8307-8.3945 18.8307-18.7498 0-10.3552-8.4308-18.7498-18.8307-18.7498-10.39991 0-18.8307 8.3946-18.8307 18.7498 0 10.3553 8.43079 18.7498 18.8307 18.7498z" fill="#c9caca"/><path d="m185.042 74.5386c0-10.3503-8.435-18.7498-18.83-18.7498s-18.831 8.3995-18.831 18.7498c0 11.5696 9.415 16.7448 9.415 22.218 0 5.4734-9.415 10.6484-9.415 22.2184 0 10.35 8.436 18.749 18.831 18.749s18.83-8.399 18.83-18.749c0-11.57-9.415-16.745-9.415-22.2184 0-5.4732 9.415-10.6484 9.415-22.218z" fill="url(#b)"/><path d="m133.474 109.843c-.136-.27-.299-.487-.462-.758-.082-.109-.137-.244-.218-.352-6.531-10.432-16.98-11.2178-19.919-16.4742-2.504-4.4978.653-11.8677-1.742-20.7819-1.524-8.8872-9.279-15.6339-18.6401-15.6339-8.599 0-15.8374 5.7171-18.1504 13.5205-3.6192 9.8355.2721 18.0453-2.4219 22.8953-2.9389 5.2564-13.3883 6.0151-19.9191 16.4462-.0817.136-.1905.299-.2722.434-.136.217-.2721.434-.4081.677-.1361.244-.2722.461-.381.678-4.7077 9.239-1.0069 20.511 8.2724 25.198 9.0616 4.579 20.0825 1.138 24.9534-7.641 0 0 .1089-.189.1633-.298.0544-.108.1088-.189.1633-.298.0544-.135.1088-.244.1632-.379 5.6329-11.082.7075-20.403 3.6737-25.713.8435-1.4905 2.2858-2.6014 4.0545-3.6852 1.7688 1.0838 3.2111 2.1947 4.0546 3.6852 2.9661 5.283-1.932 14.604 3.6464 25.659.054.135.109.271.191.433.054.109.136.217.19.325.054.082.082.19.136.271 4.871 8.779 15.892 12.22 24.953 7.641 9.28-4.687 12.981-15.959 8.273-25.198-.109-.244-.245-.434-.381-.678z" fill="url(#c)"/><path d="m37.634 124.908c0-10.35-8.4357-18.75-18.8306-18.75-10.39503 0-18.8307438 8.4-18.8307438 18.75 0 12.193 9.4153438 17.666 9.4153438 23.437 0 5.772-9.4153438 11.245-9.4153438 23.438 0 10.35 8.4357138 18.749 18.8307438 18.749 10.3949 0 18.8306-8.399 18.8306-18.749 0-12.193-9.4153-17.666-9.4153-23.438 0-5.771 9.4153-11.244 9.4153-23.437z" fill="#75bc2a"/><path d="m234.159 21.7845c0-10.3504-8.435-18.74983-18.83-18.74983s-18.831 8.39943-18.831 18.74983c0 12.1927 9.415 17.6659 9.415 23.4372 0 5.7712-9.415 11.2444-9.415 23.4372 0 10.3503 8.436 18.7498 18.831 18.7498s18.83-8.3995 18.83-18.7498c0-12.1928-9.415-17.666-9.415-23.4372 0-5.7713 9.415-11.2445 9.415-23.4372z" fill="#ffe100"/><path d="m117.092 37.4996c10.4 0 18.831-8.3946 18.831-18.7498 0-10.35523-8.431-18.7498-18.831-18.7498-10.399 0-18.8303 8.39457-18.8303 18.7498 0 10.3552 8.4313 18.7498 18.8303 18.7498z" fill="#c9caca"/><path d="m76.4657 2.03213c-2.7212-1.381848-5.6329-2.03213-8.5174-2.03213 0 0-.1904 0-.2721 0-.2449 0-.4898 0-.7347.0270951-12.0821.4877109-17.6606 9.3207049-23.5656 9.3207049s-11.7556-9.3478-24.5452-9.3478c-10.39498 0-18.8307 8.39947-18.8307 18.7498 0 10.3503 8.43572 18.7498 18.8307 18.7498.3265 0 .6259-.0271.9524-.0542 12.1094-.4606 17.715-9.3207 23.62-9.3207s11.293 8.5349 22.9397 9.2936c.4082.0271.8436.0542 1.2518.0542h.381c6.8574 0 13.4699-3.7391 16.7897-10.242 4.7077-9.2394 1.0069-20.51092-8.2724-25.19837z" fill="#d07100"/><g fill="#070001"><path d="m918.242 22.489-.027.0271v-.0271l-87.786 43.0541 5.823 11.8134 81.881-40.182 82.017 40.2362 5.85-11.8676z"/><path d="m977.019 74.7554h-117.256v12.5179h117.256z"/><path d="m845.748 114.124h38.206l-18.042 36.443-14.014.786.762 13.141 115.406-6.557 4.055 8.752h15.81l-18.477-40.101h-15.838l8.545 18.506-81.119 4.606 17.606-35.576h92.031v-12.49h-144.931z"/><path d="m767.215 33.2456 3.973-6.855-10.395-6.0151-20.953 36.1448 10.395 6.0151 10.231-17.6389h48.628v-11.6509z"/><path d="m809.094 64.3237h-63.213v11.3258h63.213z"/><path d="m737.825 72.8045h-21.007v-7.9931h20.218v-23.6811h-20.218v-7.6408h21.007v-8.6162h-69.173v56.7371h69.173zm-56.356-39.315h24.083v7.6408h-24.083zm0 15.7965h43.104v7.5053h-43.104zm0 15.4983h24.083v7.9931h-24.083z"/><path d="m795.841 155.743h-34.532v-11.868h43.458v-56.1953h-136.06v56.1953h40.6l-6.884 11.868h-33.716v10.865h41.417l13.197-22.76h23.865v22.733h61.935v-16.827h-13.252v5.961zm-113.338-59.6097h107.787v7.3697h-107.787zm0 15.6067h107.787v7.912h-107.787zm0 16.176h107.787v7.776h-107.787z"/><path d="m520.701 22.2451h-13.687v43.2708h-14.532v13.954h14.532v87.1381h13.687v-87.1381h14.178v-13.954h-14.178z"/><path d="m637.469 43.867v-11.5425h-42.07v-10.0794h-12.817v10.0794h-42.396v11.5425h42.396v11.3799h-38.505v57.4411h67.05v13.114h-71.322v11.895h71.322v14.496h-21.851v13.683h35.348v-28.179h12.845v-11.895h-12.845v-13.114h8.98v-57.4411h-38.205v-11.3799zm-54.86 59.23h-25.307v-15.0921h25.307zm0-24.0606h-25.307v-13.7914h25.307zm38.043 24.0606h-25.226v-15.0921h25.226zm0-37.8791v13.7914h-25.226v-13.7914z"/><path d="m568.132 143.604c-5.198-2.628-11.511-.569-14.151 4.606-2.639 5.175-.571 11.461 4.626 14.09 5.198 2.628 11.511.569 14.151-4.607 2.639-5.175.571-11.461-4.626-14.089z"/><path d="m638.829 13.3578c-5.959-2.5199-10.694 1.1921-13.524 0-1.388-.5961-2.231-2.3573-3.456-4.28106-1.034-2.24889-2.857-4.14555-5.306-5.17516-.109-.05419-.218-.05419-.3-.08129-.109-.05419-.19-.10838-.272-.16257v.05419c-5.197-1.84246-10.993.65029-13.225 5.79835-2.204 5.17514 0 11.05474 4.898 13.49334v.0542s.191.0542.272.1084c.109.0542.191.1084.273.1625 2.449 1.0568 5.088 1.0297 7.428.2439 2.232-.4606 4.109-1.0567 5.497-.4877 2.803 1.1922 3.402 7.1802 9.334 9.7271 5.333 2.276 11.511-.2438 13.796-5.6087 2.313-5.3648-.136-11.5425-5.469-13.8184z"/><path d="m370.927 108.082h-41.58l31.185-85.8369h-20.762l-52.411 144.2539h20.763l13.715-37.716h56.519z"/><path d="m368.559 22.2451-10.477 28.8021 42.124 115.4518h20.79z"/><path d="m433.215 22.2451v88.4379l20.79-57.3869v-31.051z"/><path d="m433.215 166.499h20.79v-95.6455l-20.79 57.3875z"/><path d="m530.88 218.495c0-1.599-.572-2.872-1.688-3.794-1.143-.921-3.183-1.815-6.204-2.655-3.02-.84-5.197-1.761-6.585-2.737-1.96-1.409-2.939-3.251-2.939-5.527s.925-4.01 2.748-5.392 4.164-2.086 6.994-2.086c1.932 0 3.646.379 5.17 1.111 1.524.731 2.694 1.761 3.538 3.088.843 1.328 1.251 2.791 1.251 4.417h-2.476c0-1.978-.68-3.577-2.041-4.769-1.36-1.192-3.184-1.815-5.469-1.815-2.286 0-3.973.488-5.307 1.49-1.306.976-1.986 2.276-1.986 3.875 0 1.463.598 2.682 1.768 3.603 1.171.922 3.075 1.734 5.688 2.466 2.612.704 4.571 1.436 5.932 2.195 1.333.758 2.34 1.68 3.021 2.736.68 1.057 1.006 2.303 1.006 3.739 0 2.276-.925 4.092-2.748 5.474-1.823 1.381-4.245 2.059-7.238 2.059-2.041 0-3.919-.352-5.633-1.084-1.715-.732-2.994-1.734-3.892-3.062-.898-1.3-1.333-2.818-1.333-4.498h2.449c0 2.033.762 3.658 2.286 4.823 1.524 1.166 3.565 1.762 6.095 1.762 2.259 0 4.082-.488 5.443-1.491 1.36-1.002 2.041-2.303 2.041-3.956z"/><path d="m553.573 222.884c-1.442 2.086-3.728 3.116-6.885 3.116-2.285 0-4.054-.677-5.252-2.005-1.197-1.328-1.796-3.306-1.823-5.907v-13.981h2.368v13.683c0 4.092 1.66 6.124 4.98 6.124 3.319 0 5.632-1.409 6.558-4.254v-15.526h2.394v21.46h-2.313v-2.71z"/><path d="m565.928 204.134.082 3.495c.789-1.3 1.796-2.276 2.993-2.926 1.198-.65 2.531-.975 3.973-.975 3.402 0 5.551 1.382 6.477 4.172.762-1.327 1.796-2.357 3.075-3.088 1.279-.732 2.721-1.084 4.272-1.084 4.626 0 6.993 2.52 7.075 7.532v14.334h-2.395v-14.144c0-1.924-.435-3.333-1.251-4.254-.817-.921-2.15-1.382-4.001-1.382-1.714 0-3.156.569-4.354 1.653-1.17 1.084-1.85 2.384-1.959 3.929v14.198h-2.394v-14.334c0-1.842-.463-3.224-1.307-4.118-.87-.894-2.177-1.355-3.945-1.355-1.497 0-2.803.434-3.864 1.273-1.089.84-1.878 2.114-2.395 3.794v14.712h-2.395v-21.459h2.286z"/><path d="m603.725 204.134.082 3.495c.789-1.3 1.796-2.276 2.993-2.926s2.531-.975 3.973-.975c3.402 0 5.551 1.382 6.477 4.172.761-1.327 1.796-2.357 3.074-3.088 1.279-.732 2.722-1.084 4.273-1.084 4.626 0 6.993 2.52 7.075 7.532v14.334h-2.395v-14.144c0-1.924-.435-3.333-1.252-4.254-.816-.921-2.149-1.382-4-1.382-1.714 0-3.156.569-4.354 1.653-1.17 1.084-1.85 2.384-1.959 3.929v14.198h-2.395v-14.334c0-1.842-.462-3.224-1.306-4.118-.871-.894-2.177-1.355-3.945-1.355-1.497 0-2.803.434-3.865 1.273-1.088.84-1.877 2.114-2.394 3.794v14.712h-2.395v-21.459h2.286z"/><path d="m647.727 226c-1.824 0-3.483-.461-4.98-1.355-1.47-.894-2.64-2.14-3.456-3.766-.816-1.599-1.225-3.414-1.225-5.419v-.84c0-2.059.409-3.929 1.198-5.582.789-1.652 1.932-2.953 3.347-3.901 1.442-.949 2.993-1.409 4.653-1.409 2.612 0 4.681.894 6.232 2.682 1.523 1.788 2.313 4.2 2.313 7.289v1.327h-15.375v.461c0 2.439.707 4.471 2.095 6.096 1.388 1.626 3.157 2.439 5.279 2.439 1.279 0 2.395-.244 3.375-.704.979-.461 1.85-1.193 2.666-2.222l1.497 1.138c-1.742 2.52-4.299 3.793-7.647 3.793zm-.436-20.24c-1.796 0-3.292.65-4.544 1.978-1.225 1.3-1.987 3.062-2.231 5.283h12.925v-.271c-.054-2.059-.653-3.739-1.769-5.039-1.115-1.301-2.585-1.951-4.381-1.951z"/><path d="m672.055 206.139c-.517-.081-1.034-.135-1.605-.135-1.497 0-2.749.406-3.783 1.246s-1.768 2.032-2.204 3.604v14.74h-2.367v-21.46h2.34v3.414c1.306-2.547 3.32-3.82 6.123-3.82.653 0 1.197.081 1.578.271l-.055 2.167z"/><path d="m706.803 225.593h-18.177v-1.815l9.932-11.244c1.66-1.897 2.803-3.441 3.429-4.688.626-1.246.952-2.438.952-3.603 0-1.816-.544-3.279-1.605-4.336-1.061-1.056-2.558-1.598-4.436-1.598-1.877 0-3.537.623-4.735 1.869-1.197 1.247-1.796 2.845-1.796 4.85h-2.367c0-1.625.354-3.116 1.116-4.443.734-1.328 1.796-2.385 3.156-3.143 1.361-.759 2.912-1.138 4.653-1.138 2.667 0 4.735.704 6.232 2.086s2.231 3.279 2.231 5.663c0 1.355-.435 2.818-1.279 4.416-.843 1.599-2.34 3.604-4.462 5.988l-8.082 9.104h15.238v2.005z"/><path d="m730.371 213.563c0 4.065-.762 7.18-2.259 9.267-1.497 2.086-3.728 3.17-6.64 3.17-2.911 0-5.061-1.03-6.585-3.116-1.524-2.059-2.313-5.094-2.34-9.05v-5.175c0-4.064.762-7.126 2.258-9.239 1.497-2.114 3.728-3.143 6.64-3.143s5.062 1.002 6.586 3.034c1.523 2.032 2.285 4.986 2.34 8.915v5.31zm-2.395-5.175c0-3.305-.544-5.798-1.633-7.505-1.088-1.68-2.721-2.547-4.925-2.547s-3.782.84-4.871 2.493c-1.088 1.652-1.66 4.091-1.687 7.315v5.663c0 3.306.571 5.826 1.687 7.56s2.748 2.628 4.898 2.628 3.728-.84 4.844-2.547c1.088-1.707 1.66-4.2 1.66-7.505v-5.555z"/><path d="m755.323 225.593h-18.178v-1.815l9.933-11.244c1.66-1.897 2.803-3.441 3.428-4.688.626-1.246.953-2.438.953-3.603 0-1.816-.544-3.279-1.606-4.336-1.061-1.056-2.558-1.598-4.435-1.598-1.878 0-3.538.623-4.735 1.869-1.197 1.247-1.796 2.845-1.796 4.85h-2.367c0-1.625.353-3.116 1.115-4.443.735-1.328 1.796-2.385 3.157-3.143 1.36-.759 2.911-1.138 4.653-1.138 2.667 0 4.735.704 6.232 2.086 1.496 1.382 2.231 3.279 2.231 5.663 0 1.355-.435 2.818-1.279 4.416-.844 1.599-2.34 3.604-4.463 5.988l-8.082 9.104h15.239v2.005z"/><path d="m776.032 216.3h4.517v2.005h-4.517v7.316h-2.395v-7.316h-13.66v-1.355l13.442-20.24h2.613zm-13.117 0h10.722v-16.501l-1.061 1.815z"/></g></g></svg>