<?xml version="1.0" encoding="UTF-8"?><svg id="_レイヤー_2" xmlns="http://www.w3.org/2000/svg" viewBox="0 0 451.63 158.42"><defs><style>.cls-1{fill:#fff;stroke-width:0px;}</style></defs><g id="_レイヤー_1-2"><path class="cls-1" d="M241.75,158.2c-2.77,0-5.56-.13-8.32.04-2.4.15-3.95-.82-5.38-2.66-7.36-9.49-14.81-18.91-22.23-28.35-.29-.36-.56-.73-.86-1.09-2.33-2.86-2.74-2.86-5.15.11-4.19,5.17-8.35,10.35-12.52,15.53-3.76,4.68-7.57,9.32-11.26,14.06-1.31,1.69-2.8,2.42-4.96,2.38-6.01-.11-12.02.04-18.03-.1-1.23-.03-3.26-.61-3.48-1.35-.32-1.08.35-2.82,1.17-3.81,11.95-14.69,23.97-29.32,36.07-43.89,1.62-1.95,1.59-3.23.03-5.21-10.55-13.32-20.98-26.75-31.44-40.14-.4-.51-.93-.97-1.15-1.55-.43-1.12-1.25-2.62-.84-3.4.44-.84,2.1-1.44,3.24-1.46,6.1-.14,12.21-.22,18.3.05,1.48.07,3.32,1.2,4.27,2.41,6.91,8.78,13.64,17.71,20.42,26.59,2.67,3.5,3.01,3.51,5.78-.03,6.89-8.8,13.8-17.58,20.62-26.44,1.36-1.77,2.87-2.69,5.11-2.67,6.01.06,12.02-.07,18.02.1,1.29.04,3.07.69,3.67,1.66.43.69-.42,2.6-1.2,3.57-10.89,13.64-21.87,27.22-32.83,40.81-2.47,3.06-2.48,3.25-.02,6.36,11.3,14.26,22.6,28.53,33.9,42.79.34.43.81.84.97,1.34.31.98.89,2.25.52,2.95-.4.74-1.76,1.28-2.73,1.33-3.23.16-6.47.06-9.7.06h0Z"/><path class="cls-1" d="M401.74,4.64c0-4.32-.29-4.62-4.5-4.63-4.25-.01-8.5,0-12.75,0-4.9,0-5.25.34-5.25,5.14,0,23.91,0,47.81,0,71.72,0,25.66,0,51.32,0,76.98,0,3.73.63,4.34,4.36,4.35,4.62.02,9.24.02,13.86,0,3.9-.01,4.27-.39,4.27-4.3,0-24.92,0-49.84,0-74.77,0-24.83,0-49.66,0-74.49Z"/><path class="cls-1" d="M451.63,4.87c0-4.43-.44-4.85-4.96-4.86-4.44,0-8.87-.01-13.31,0-3.85.02-4.23.41-4.23,4.35,0,15.14,0,30.28,0,45.42,0,34.71,0,69.42,0,104.12,0,3.89.39,4.28,4.28,4.29,4.44.02,8.87,0,13.31,0,4.5,0,4.91-.4,4.91-4.9,0-24.74,0-49.48,0-74.22,0-24.74,0-49.48,0-74.22Z"/><path class="cls-1" d="M143.55,153.09C121.19,103.33,98.83,53.58,76.46,3.82c-.23-.5-.45-1.02-.73-1.49-1.29-2.23-3.11-2.3-4.45-.15-.44.7-.75,1.48-1.1,2.23-5.61,12.05-11.22,24.1-16.83,36.15C35.85,78.13,18.34,115.7.84,153.27c-1.7,3.64-.9,4.9,3.13,4.93,5.36.03,10.73-.12,16.08.06,2.73.09,4.19-.95,5.28-3.41,4.09-9.19,8.44-18.27,12.51-27.47,1.17-2.64,2.62-3.73,5.62-3.67,9.61.2,19.23.07,28.84.07s19.41.11,29.12-.06c2.92-.05,4.44.82,5.57,3.6,3.85,9.39,8.04,18.65,11.99,28,.89,2.1,2.17,2.95,4.43,2.91,5.64-.1,11.28-.01,16.92-.04,4.16-.02,4.96-1.26,3.24-5.1ZM92.23,102.56c-6.55.04-13.11.01-19.66.01-6.46,0-12.92.02-19.38,0-3.34-.01-3.92-.84-2.58-3.78,6.75-14.75,13.53-29.49,20.37-44.2.41-.88,1.44-1.46,2.17-2.19.69.77,1.64,1.42,2.03,2.32,6.5,14.76,12.94,29.55,19.37,44.34,1.2,2.76.71,3.49-2.33,3.51Z"/><path class="cls-1" d="M360.52,103.34c-2.59-28.59-28.47-48.95-57.08-45.25-38.92,5.04-52.25,45.52-38.03,72.93,10.57,20.37,33,30.94,56.02,26.35,13.41-2.68,24.59-8.89,32.29-20.49.72-1.09,1.28-2.89.86-3.93-.34-.82-2.29-1.34-3.55-1.37-5.73-.14-11.46-.1-17.19-.02-1.06.01-2.31.21-3.15.79-7.47,5.11-15.89,5.89-24.46,5-10.05-1.05-17.59-6.3-22.43-15.2-1.77-3.26-1.06-4.36,2.56-4.36,11.55-.01,23.1,0,34.65,0,11.64,0,23.29-.05,34.93.03,2.69.02,4.29-.82,4.37-3.68.1-3.59.53-7.21.21-10.77ZM335.02,99.89c-8.23.04-16.45.01-24.68.02-8.13,0-16.27.02-24.4,0-3.68-.01-4.27-.84-2.63-4.13,5.61-11.27,14.68-17.49,27.38-17.33,12.57.16,21.45,6.51,26.81,17.77,1.33,2.78.71,3.66-2.47,3.68Z"/><path class="cls-1" d="M451.63,4.87c0-4.43-.44-4.85-4.96-4.86-4.44,0-8.87-.01-13.31,0-3.85.02-4.23.41-4.23,4.35,0,15.14,0,30.28,0,45.42,0,34.71,0,69.42,0,104.12,0,3.89.39,4.28,4.28,4.29,4.44.02,8.87,0,13.31,0,4.5,0,4.91-.4,4.91-4.9,0-24.74,0-49.48,0-74.22s0-49.48,0-74.22Z"/><path class="cls-1" d="M397.24,0c-4.25-.01-8.5,0-12.75,0-4.9,0-5.25.34-5.25,5.14,0,23.91,0,47.81,0,71.72,0,25.66,0,51.32,0,76.98,0,3.73.63,4.34,4.36,4.35,4.62.02,9.24.02,13.86,0,3.9-.01,4.27-.39,4.27-4.3,0-24.92,0-49.84,0-74.77,0-24.83,0-49.66,0-74.49,0-4.32-.29-4.62-4.5-4.63Z"/></g></svg>