<svg width="324" height="22" viewBox="0 0 324 22" fill="none" xmlns="http://www.w3.org/2000/svg">
<path d="M7.94372 1.4H11.8777L19.0037 21H15.3777L14.1177 17.528H5.71772L4.45772 21H0.831716L7.94372 1.4ZM6.96372 14.112H12.8577L9.90372 6.034L6.96372 14.112ZM26.9527 21V1.4H34.0927C35.1287 1.4 36.062 1.61467 36.8927 2.044C37.7327 2.464 38.3953 3.07067 38.8807 3.864C39.3753 4.648 39.6227 5.57667 39.6227 6.65C39.6227 7.126 39.5527 7.60667 39.4127 8.092C39.2727 8.57733 39.058 9.016 38.7687 9.408C38.4793 9.79067 38.106 10.0753 37.6487 10.262C38.2553 10.4113 38.75 10.682 39.1327 11.074C39.5153 11.466 39.814 11.928 40.0287 12.46C40.2433 12.9827 40.388 13.5193 40.4627 14.07C40.5467 14.6113 40.5887 15.1153 40.5887 15.582C40.5887 16.618 40.332 17.542 39.8187 18.354C39.3053 19.166 38.6147 19.81 37.7467 20.286C36.888 20.762 35.936 21 34.8907 21H26.9527ZM30.3687 18.074H34.5407C35.1007 18.074 35.6047 17.9387 36.0527 17.668C36.5007 17.3973 36.86 17.024 37.1307 16.548C37.4013 16.072 37.5367 15.5307 37.5367 14.924C37.5367 14.4013 37.4013 13.9067 37.1307 13.44C36.86 12.9733 36.5007 12.5953 36.0527 12.306C35.6047 12.0167 35.1007 11.872 34.5407 11.872H30.3687V18.074ZM30.3687 8.988H33.7007C34.3913 8.988 34.9793 8.77333 35.4647 8.344C35.9593 7.91467 36.2067 7.34533 36.2067 6.636C36.2067 5.88 35.9593 5.31067 35.4647 4.928C34.9793 4.536 34.3913 4.34 33.7007 4.34H30.3687V8.988ZM57.5394 21.364C56.214 21.364 54.968 21.1027 53.8014 20.58C52.6347 20.048 51.608 19.3153 50.7214 18.382C49.8347 17.4487 49.1394 16.3707 48.6354 15.148C48.1314 13.916 47.8794 12.6 47.8794 11.2C47.8794 9.8 48.1314 8.48867 48.6354 7.266C49.1394 6.034 49.8347 4.95133 50.7214 4.018C51.608 3.08467 52.6347 2.35667 53.8014 1.834C54.968 1.302 56.214 1.036 57.5394 1.036C58.874 1.036 60.1247 1.302 61.2914 1.834C62.458 2.35667 63.4847 3.08467 64.3714 4.018C65.258 4.95133 65.9487 6.034 66.4434 7.266C66.9474 8.48867 67.1994 9.8 67.1994 11.2C67.1994 12.6 66.9474 13.916 66.4434 15.148C65.9487 16.3707 65.258 17.4487 64.3714 18.382C63.4847 19.3153 62.458 20.048 61.2914 20.58C60.1247 21.1027 58.874 21.364 57.5394 21.364ZM57.5394 17.948C58.398 17.948 59.2054 17.7707 59.9614 17.416C60.7174 17.0613 61.38 16.576 61.9494 15.96C62.528 15.3347 62.976 14.616 63.2934 13.804C63.62 12.992 63.7834 12.124 63.7834 11.2C63.7834 10.276 63.62 9.408 63.2934 8.596C62.9667 7.77467 62.514 7.056 61.9354 6.44C61.366 5.824 60.7034 5.33867 59.9474 4.984C59.2007 4.62933 58.398 4.452 57.5394 4.452C56.6807 4.452 55.8734 4.62933 55.1174 4.984C54.3614 5.33867 53.694 5.82867 53.1154 6.454C52.546 7.07 52.098 7.784 51.7714 8.596C51.454 9.408 51.2954 10.276 51.2954 11.2C51.2954 12.1333 51.4587 13.006 51.7854 13.818C52.112 14.63 52.56 15.3487 53.1294 15.974C53.708 16.59 54.3707 17.0753 55.1174 17.43C55.8734 17.7753 56.6807 17.948 57.5394 17.948ZM83.2215 21.364C81.6535 21.364 80.2768 20.9813 79.0915 20.216C77.9155 19.4507 77.0008 18.424 76.3475 17.136C75.6942 15.8387 75.3675 14.4013 75.3675 12.824V1.4H78.7835V12.824C78.7835 13.7573 78.9562 14.616 79.3015 15.4C79.6562 16.1747 80.1602 16.7953 80.8135 17.262C81.4762 17.7193 82.2788 17.948 83.2215 17.948C84.1735 17.948 84.9762 17.7193 85.6295 17.262C86.2828 16.7953 86.7775 16.1747 87.1135 15.4C87.4588 14.616 87.6315 13.7573 87.6315 12.824V1.4H91.0475V12.824C91.0475 14.0093 90.8608 15.12 90.4875 16.156C90.1142 17.1827 89.5822 18.088 88.8915 18.872C88.2008 19.656 87.3748 20.2673 86.4135 20.706C85.4615 21.1447 84.3975 21.364 83.2215 21.364ZM114.839 1.4V4.816H108.847V21H105.431V4.816H99.4387V1.4H114.839ZM135.562 8.708L137.564 1.4H139.846L138.978 8.708H135.562ZM140.294 8.652L142.296 1.344H144.578L143.71 8.652H140.294ZM162.984 7H166.4V21H162.984L162.83 19.264C162.447 19.8893 161.938 20.398 161.304 20.79C160.678 21.1727 159.936 21.364 159.078 21.364C158.042 21.364 157.071 21.168 156.166 20.776C155.26 20.384 154.462 19.8427 153.772 19.152C153.09 18.4613 152.554 17.6633 152.162 16.758C151.779 15.8527 151.588 14.882 151.588 13.846C151.588 12.8473 151.77 11.9093 152.134 11.032C152.507 10.1547 153.025 9.38467 153.688 8.722C154.35 8.05933 155.116 7.54133 155.984 7.168C156.852 6.79467 157.785 6.608 158.784 6.608C159.708 6.608 160.534 6.81333 161.262 7.224C161.999 7.63467 162.624 8.15733 163.138 8.792L162.984 7ZM158.994 18.074C159.722 18.074 160.366 17.892 160.926 17.528C161.486 17.164 161.924 16.674 162.242 16.058C162.559 15.4327 162.718 14.7467 162.718 14C162.718 13.244 162.559 12.558 162.242 11.942C161.924 11.3167 161.481 10.822 160.912 10.458C160.352 10.094 159.712 9.912 158.994 9.912C158.275 9.912 157.617 10.0987 157.02 10.472C156.432 10.836 155.96 11.326 155.606 11.942C155.26 12.558 155.088 13.244 155.088 14C155.088 14.756 155.265 15.442 155.62 16.058C155.974 16.674 156.446 17.164 157.034 17.528C157.631 17.892 158.284 18.074 158.994 18.074ZM174.789 7H178.205V21H174.789V7ZM176.525 5.194C176.021 5.194 175.597 5.03067 175.251 4.704C174.906 4.368 174.733 3.948 174.733 3.444C174.733 2.94933 174.906 2.534 175.251 2.198C175.597 1.862 176.017 1.694 176.511 1.694C177.006 1.694 177.421 1.862 177.757 2.198C178.103 2.534 178.275 2.94933 178.275 3.444C178.275 3.948 178.107 4.368 177.771 4.704C177.435 5.03067 177.02 5.194 176.525 5.194ZM187.225 21V-1.66893e-06H190.641V21H187.225ZM199.607 7H203.023V21H199.607V7ZM201.343 5.194C200.839 5.194 200.414 5.03067 200.069 4.704C199.723 4.368 199.551 3.948 199.551 3.444C199.551 2.94933 199.723 2.534 200.069 2.198C200.414 1.862 200.834 1.694 201.329 1.694C201.823 1.694 202.239 1.862 202.575 2.198C202.92 2.534 203.093 2.94933 203.093 3.444C203.093 3.948 202.925 4.368 202.589 4.704C202.253 5.03067 201.837 5.194 201.343 5.194ZM222.216 7H225.632V21H222.216L222.062 19.264C221.679 19.8893 221.17 20.398 220.536 20.79C219.91 21.1727 219.168 21.364 218.31 21.364C217.274 21.364 216.303 21.168 215.398 20.776C214.492 20.384 213.694 19.8427 213.004 19.152C212.322 18.4613 211.786 17.6633 211.394 16.758C211.011 15.8527 210.82 14.882 210.82 13.846C210.82 12.8473 211.002 11.9093 211.366 11.032C211.739 10.1547 212.257 9.38467 212.92 8.722C213.582 8.05933 214.348 7.54133 215.216 7.168C216.084 6.79467 217.017 6.608 218.016 6.608C218.94 6.608 219.766 6.81333 220.494 7.224C221.231 7.63467 221.856 8.15733 222.37 8.792L222.216 7ZM218.226 18.074C218.954 18.074 219.598 17.892 220.158 17.528C220.718 17.164 221.156 16.674 221.474 16.058C221.791 15.4327 221.95 14.7467 221.95 14C221.95 13.244 221.791 12.558 221.474 11.942C221.156 11.3167 220.713 10.822 220.144 10.458C219.584 10.094 218.944 9.912 218.226 9.912C217.507 9.912 216.849 10.0987 216.252 10.472C215.664 10.836 215.192 11.326 214.838 11.942C214.492 12.558 214.32 13.244 214.32 14C214.32 14.756 214.497 15.442 214.852 16.058C215.206 16.674 215.678 17.164 216.266 17.528C216.863 17.892 217.516 18.074 218.226 18.074ZM253.404 21.364C252.321 21.364 251.281 21.196 250.282 20.86C249.293 20.5147 248.425 20.0247 247.678 19.39C246.931 18.746 246.395 17.976 246.068 17.08L249.274 15.904C249.405 16.2773 249.671 16.618 250.072 16.926C250.473 17.234 250.963 17.4813 251.542 17.668C252.121 17.8547 252.741 17.948 253.404 17.948C254.085 17.948 254.72 17.8453 255.308 17.64C255.905 17.4253 256.386 17.1313 256.75 16.758C257.114 16.3753 257.296 15.932 257.296 15.428C257.296 14.9147 257.105 14.4947 256.722 14.168C256.339 13.832 255.849 13.566 255.252 13.37C254.655 13.174 254.039 13.0247 253.404 12.922C252.013 12.7073 250.767 12.376 249.666 11.928C248.565 11.48 247.692 10.8593 247.048 10.066C246.413 9.27267 246.096 8.246 246.096 6.986C246.096 5.80067 246.437 4.76467 247.118 3.878C247.799 2.99133 248.695 2.30067 249.806 1.806C250.917 1.31133 252.116 1.064 253.404 1.064C254.477 1.064 255.513 1.232 256.512 1.568C257.511 1.904 258.383 2.394 259.13 3.038C259.886 3.682 260.427 4.45667 260.754 5.362L257.534 6.524C257.403 6.15067 257.137 5.81 256.736 5.502C256.335 5.194 255.845 4.95133 255.266 4.774C254.687 4.58733 254.067 4.494 253.404 4.494C252.741 4.48467 252.111 4.592 251.514 4.816C250.926 5.03067 250.445 5.32467 250.072 5.698C249.699 6.07133 249.512 6.50067 249.512 6.986C249.512 7.61133 249.685 8.08267 250.03 8.4C250.385 8.71733 250.856 8.95067 251.444 9.1C252.032 9.24 252.685 9.37067 253.404 9.492C254.711 9.69733 255.919 10.0427 257.03 10.528C258.141 11.0133 259.032 11.662 259.704 12.474C260.376 13.2767 260.712 14.2613 260.712 15.428C260.712 16.6133 260.376 17.654 259.704 18.55C259.032 19.4367 258.141 20.1273 257.03 20.622C255.919 21.1167 254.711 21.364 253.404 21.364ZM269.503 21V1.4H275.999C277.352 1.4 278.617 1.65667 279.793 2.17C280.978 2.674 282.019 3.37867 282.915 4.284C283.82 5.18 284.525 6.22067 285.029 7.406C285.542 8.582 285.799 9.84667 285.799 11.2C285.799 12.5533 285.542 13.8227 285.029 15.008C284.525 16.184 283.82 17.2247 282.915 18.13C282.019 19.026 280.978 19.7307 279.793 20.244C278.617 20.748 277.352 21 275.999 21H269.503ZM272.919 17.584H275.999C276.867 17.584 277.683 17.4207 278.449 17.094C279.223 16.758 279.905 16.3007 280.493 15.722C281.081 15.134 281.543 14.4573 281.879 13.692C282.215 12.9173 282.383 12.0867 282.383 11.2C282.383 10.3133 282.215 9.48733 281.879 8.722C281.543 7.95667 281.081 7.28 280.493 6.692C279.905 6.104 279.228 5.64667 278.463 5.32C277.697 4.984 276.876 4.816 275.999 4.816H272.919V17.584ZM307.991 21H303.539L298.037 13.314L297.085 14.448V21H293.669V1.4H297.085V9.142L303.567 1.4H308.033L300.263 10.64L307.991 21ZM314.583 8.708L315.451 1.4H318.867L316.865 8.708H314.583ZM319.315 8.708L320.183 1.4H323.599L321.597 8.708H319.315Z" fill="#333333"/>
</svg>
