<?xml version="1.0" encoding="utf-8"?>
<!-- Generator: Adobe Illustrator 27.6.1, SVG Export Plug-In . SVG Version: 6.00 Build 0)  -->
<svg version="1.1" id="layer1" xmlns="http://www.w3.org/2000/svg" xmlns:xlink="http://www.w3.org/1999/xlink" x="0px" y="0px"
	 viewBox="0 0 604 417" style="enable-background:new 0 0 604 417;" xml:space="preserve">
<style type="text/css">
	.st0{fill:#FF0000;}
</style>
<g id="Group">
	<path id="Path" class="st0" d="M73,42h20.3v83H73l-0.9-10.3c-2.3,3.7-5.3,6.7-9,9c-3.7,2.3-8.1,3.4-13.2,3.4
		c-6.1,0-11.9-1.2-17.3-3.5s-10.1-5.5-14.2-9.6c-4-4.1-7.2-8.8-9.5-14.2c-2.3-5.4-3.4-11.1-3.4-17.3c0-5.9,1.1-11.5,3.2-16.7
		c2.2-5.2,5.3-9.8,9.2-13.7s8.5-7,13.6-9.2s10.7-3.3,16.6-3.3c5.5,0,10.4,1.2,14.7,3.7c4.4,2.4,8.1,5.5,11.1,9.3L73,42z M49.4,107.7
		c4.3,0,8.1-1.1,11.5-3.2c3.3-2.2,5.9-5.1,7.8-8.7c1.9-3.7,2.8-7.8,2.8-12.2c0-4.5-0.9-8.5-2.8-12.2s-4.5-6.6-7.9-8.8
		c-3.3-2.2-7.1-3.2-11.4-3.2s-8.2,1.1-11.7,3.3s-6.3,5.1-8.4,8.7c-2,3.7-3.1,7.7-3.1,12.2s1.1,8.5,3.2,12.2s4.9,6.6,8.4,8.7
		C41.3,106.6,45.2,107.7,49.4,107.7z M103.2,42h20.3v83h-20.3V42z M113.5,31.3c-3,0-5.5-1-7.6-2.9c-2-2-3.1-4.5-3.1-7.5
		c0-2.9,1-5.4,3.1-7.4s4.5-3,7.5-3s5.4,1,7.4,3s3.1,4.5,3.1,7.4c0,3-1,5.5-3,7.5C118.9,30.3,116.4,31.3,113.5,31.3z M133.8,125V0.5
		H154V125H133.8z M164,42h20.3v83H164V42z M174.3,31.3c-3,0-5.5-1-7.6-2.9c-2-2-3.1-4.5-3.1-7.5c0-2.9,1-5.4,3.1-7.4
		c2-2,4.5-3,7.5-3c2.9,0,5.4,1,7.4,3s3.1,4.5,3.1,7.4c0,3-1,5.5-3,7.5C179.7,30.3,177.2,31.3,174.3,31.3z M258.2,42h20.3v83h-20.3
		l-0.9-10.3c-2.3,3.7-5.3,6.7-9,9s-8.1,3.4-13.2,3.4c-6.1,0-11.9-1.2-17.3-3.5c-5.4-2.3-10.1-5.5-14.2-9.6c-4-4.1-7.2-8.8-9.5-14.2
		c-2.3-5.4-3.4-11.1-3.4-17.3c0-5.9,1.1-11.5,3.2-16.7c2.2-5.2,5.3-9.8,9.2-13.7s8.5-7,13.6-9.2s10.7-3.3,16.6-3.3
		c5.5,0,10.4,1.2,14.7,3.7c4.4,2.4,8.1,5.5,11.1,9.3L258.2,42z M234.5,107.7c4.3,0,8.1-1.1,11.5-3.2c3.3-2.2,5.9-5.1,7.8-8.7
		c1.9-3.7,2.8-7.8,2.8-12.2c0-4.5-0.9-8.5-2.8-12.2c-1.9-3.7-4.5-6.6-7.9-8.8c-3.3-2.2-7.1-3.2-11.4-3.2c-4.3,0-8.2,1.1-11.7,3.3
		s-6.3,5.1-8.4,8.7c-2,3.7-3.1,7.7-3.1,12.2s1.1,8.5,3.2,12.2c2.1,3.7,4.9,6.6,8.4,8.7C226.5,106.6,230.3,107.7,234.5,107.7z
		 M57,252.2c-9.3,0-17.5-2.3-24.5-6.8s-12.4-10.6-16.3-18.3s-5.8-16.2-5.8-25.6v-67.7h20.3v67.7c0,5.5,1,10.6,3.1,15.3
		c2.1,4.6,5.1,8.3,9,11s8.7,4.1,14.3,4.1s10.4-1.4,14.3-4.1c3.9-2.8,6.8-6.4,8.8-11s3.1-9.7,3.1-15.3v-67.7h20.3v67.7
		c0,7-1.1,13.6-3.3,19.8c-2.2,6.1-5.4,11.5-9.5,16.1s-9,8.3-14.7,10.9C70.3,250.9,64,252.2,57,252.2z M190.1,197.5V250h-20.3v-47.1
		c0-3.3-0.8-6.2-2.4-8.9c-1.6-2.7-3.8-4.8-6.5-6.4c-2.7-1.6-5.6-2.4-8.9-2.4c-3.3,0-6.3,0.8-9,2.4c-2.7,1.5-4.8,3.7-6.4,6.4
		c-1.5,2.7-2.3,5.6-2.3,8.9V250H114l-0.1-83h20.3l0.1,7.4c2.8-3,6.2-5.3,10.1-7.1c3.9-1.8,8.2-2.7,12.7-2.7c6,0,11.5,1.5,16.5,4.5
		c5,2.9,8.9,6.9,11.9,11.9C188.6,186,190.1,191.5,190.1,197.5z M200,167h20.3v83H200V167z M210.3,156.3c-3,0-5.5-1-7.6-2.9
		c-2-2-3.1-4.5-3.1-7.5c0-2.9,1-5.4,3.1-7.4c2-2,4.5-3,7.5-3c2.9,0,5.4,1,7.4,3s3.1,4.5,3.1,7.4c0,3-1,5.5-3,7.5
		C215.7,155.3,213.2,156.3,210.3,156.3z M280.7,250h-26.1l-30.2-83.1H246l21.7,59.8l21.7-59.8H311L280.7,250z M348.1,252.2
		c-7.6,0-14.6-2-20.9-5.9s-11.3-9.2-15-15.9c-3.7-6.6-5.6-14-5.6-22c0-6,1.1-11.7,3.2-16.9c2.2-5.3,5.1-10,8.9-13.9
		c3.8-4,8.2-7.2,13.3-9.5c5-2.3,10.4-3.4,16.1-3.4c6.5,0,12.4,1.4,17.8,4.2c5.4,2.7,10,6.4,13.8,11.2s6.5,10.2,8.2,16.3
		s2.1,12.4,1.2,19.1h-60.7c0.8,3.1,2,5.9,3.8,8.4c1.8,2.4,4,4.4,6.7,5.9c2.7,1.4,5.8,2.2,9.2,2.2c3.5,0.1,6.8-0.8,9.6-2.5
		c2.9-1.8,5.4-4.1,7.3-7.1l20.7,4.8c-3.4,7.4-8.4,13.4-15.1,18.1C363.9,249.8,356.4,252.2,348.1,252.2z M327.7,200.2h40.8
		c-0.6-3.3-1.9-6.3-3.9-9c-1.9-2.7-4.3-4.9-7.2-6.5c-2.9-1.6-6-2.4-9.3-2.4s-6.4,0.8-9.2,2.4c-2.8,1.5-5.2,3.7-7.2,6.4
		C329.8,193.8,328.4,196.8,327.7,200.2z M396,250l-0.1-83h20.3l0.1,7.4c2.8-3,6.2-5.3,10.1-7.1s8.2-2.7,12.7-2.7
		c3,0,6.1,0.4,9.1,1.3l-8,20.4c-2.1-0.8-4.2-1.2-6.3-1.2c-3.3,0-6.3,0.8-9,2.4c-2.7,1.5-4.8,3.7-6.4,6.4s-2.3,5.6-2.3,8.9V250H396z
		 M476.7,251.5c-4.3-0.3-8.5-1.1-12.5-2.6s-7.5-3.5-10.6-6.1s-5.5-5.6-7.1-9.1l17.1-7.3c0.7,1.1,1.7,2.3,3.2,3.6
		c1.5,1.2,3.3,2.2,5.3,3.1c2.1,0.8,4.4,1.2,6.9,1.2c2.1,0,4.1-0.3,6-0.8c1.9-0.6,3.5-1.5,4.6-2.7c1.2-1.2,1.8-2.8,1.8-4.7
		c0-2-0.7-3.6-2.2-4.7c-1.4-1.2-3.2-2-5.3-2.6c-2.1-0.6-4.1-1.2-6.1-1.7c-5.3-1.1-10.2-2.7-14.7-4.9s-8.1-5.1-10.9-8.5
		c-2.7-3.5-4.1-7.8-4.1-12.8c0-5.5,1.4-10.2,4.3-14.2s6.7-7.1,11.4-9.2c4.7-2.2,9.8-3.2,15.2-3.2c6.6,0,12.6,1.4,18.1,4.2
		c5.5,2.7,9.9,6.6,13.1,11.5l-16,9.5c-0.8-1.3-1.9-2.5-3.2-3.7c-1.4-1.2-3-2.1-4.7-2.8c-1.8-0.8-3.6-1.2-5.6-1.3
		c-2.5-0.1-4.8,0.1-6.8,0.7c-2,0.6-3.7,1.5-5,2.8c-1.2,1.3-1.8,3.1-1.8,5.3c0,2.1,0.8,3.7,2.5,4.7s3.7,1.8,6,2.3
		c2.4,0.6,4.6,1.2,6.8,1.8c4.9,1.6,9.4,3.6,13.7,5.9c4.3,2.3,7.8,5.2,10.4,8.5c2.6,3.4,3.8,7.4,3.7,12.1c0,5.4-1.6,10.1-4.8,14.1
		c-3.2,4-7.4,7-12.5,9.1C487.8,251.1,482.4,251.9,476.7,251.5z M556.2,252.2c-7.6,0-14.6-2-20.9-5.9c-6.3-3.9-11.3-9.2-15-15.9
		c-3.7-6.6-5.6-14-5.6-22c0-6,1.1-11.7,3.2-16.9c2.2-5.3,5.1-10,8.9-13.9c3.8-4,8.2-7.2,13.3-9.5c5-2.3,10.4-3.4,16.1-3.4
		c6.5,0,12.4,1.4,17.8,4.2c5.4,2.7,10,6.4,13.8,11.2s6.5,10.2,8.2,16.3s2.1,12.4,1.2,19.1h-60.7c0.8,3.1,2,5.9,3.8,8.4
		c1.8,2.4,4,4.4,6.7,5.9c2.7,1.4,5.8,2.2,9.2,2.2c3.5,0.1,6.8-0.8,9.6-2.5c2.9-1.8,5.4-4.1,7.3-7.1l20.7,4.8
		c-3.4,7.4-8.4,13.4-15.1,18.1C572,249.8,564.5,252.2,556.2,252.2z M535.8,200.2h40.8c-0.6-3.3-1.9-6.3-3.9-9
		c-1.9-2.7-4.3-4.9-7.2-6.5s-6-2.4-9.3-2.4s-6.4,0.8-9.2,2.4c-2.8,1.5-5.2,3.7-7.2,6.4C537.9,193.8,536.6,196.8,535.8,200.2z
		 M10.5,375V258.8H52c6.3,0,12,1.6,17.1,4.7c5.1,3.2,9.2,7.4,12.2,12.7c3,5.3,4.5,11.1,4.5,17.5c0,6.5-1.5,12.4-4.6,17.8
		c-3,5.3-7.1,9.5-12.3,12.6c-5.1,3.1-10.8,4.6-16.8,4.6H30.7V375H10.5z M30.7,308.5h19.1c2.9,0,5.5-0.7,7.9-2.2s4.3-3.4,5.6-5.8
		c1.4-2.4,2.2-5.1,2.2-8.1s-0.7-5.8-2.2-8.2c-1.4-2.4-3.3-4.4-5.6-5.8s-5-2.2-7.9-2.2H30.7V308.5z M92.1,375L92,292h20.3l0.1,7.4
		c2.8-3,6.2-5.3,10.1-7.1c3.9-1.8,8.2-2.7,12.7-2.7c3,0,6.1,0.4,9.1,1.3l-8,20.4c-2.1-0.8-4.2-1.2-6.3-1.2c-3.3,0-6.3,0.8-9,2.4
		c-2.7,1.5-4.8,3.7-6.4,6.4c-1.6,2.7-2.3,5.6-2.3,8.9V375H92.1z M179.6,377.2c-7.6,0-14.6-2-20.9-5.9c-6.3-3.9-11.3-9.2-15-15.8
		c-3.7-6.6-5.6-14-5.6-22c0-6.1,1.1-11.8,3.2-17c2.2-5.3,5.1-10,8.9-13.9c3.8-4,8.2-7.2,13.3-9.5c5-2.3,10.4-3.4,16.1-3.4
		c7.6,0,14.6,2,20.8,5.9c6.3,3.9,11.3,9.2,15,15.9c3.8,6.6,5.6,14,5.6,22.1c0,6-1.1,11.7-3.2,16.9c-2.2,5.3-5.1,9.9-9,13.9
		c-3.8,4-8.2,7.1-13.2,9.4C190.7,376,185.4,377.2,179.6,377.2z M179.6,356.9c4,0,7.7-1.1,10.9-3.2c3.2-2.2,5.7-5,7.6-8.5
		c1.9-3.5,2.8-7.4,2.8-11.6c0-4.3-1-8.2-2.9-11.8c-1.9-3.6-4.5-6.4-7.7-8.5c-3.2-2.2-6.8-3.2-10.6-3.2c-4,0-7.6,1.1-10.8,3.2
		c-3.2,2.2-5.8,5-7.6,8.6c-1.9,3.6-2.8,7.5-2.8,11.7c0,4.4,1,8.3,2.9,11.9c1.9,3.5,4.5,6.4,7.7,8.5
		C172.2,355.9,175.8,356.9,179.6,356.9z M294.3,292h20.3v84.6c0,6-1.2,11.4-3.7,16.3c-2.4,4.9-5.8,9.1-10,12.6s-9,6.3-14.4,8.1
		c-5.4,1.9-11.1,2.9-17.1,2.9c-5.8,0-11.4-1.2-16.8-3.6c-5.4-2.4-10.1-5.6-14.3-9.8c-4.1-4.1-7.2-8.8-9.4-14l18.5-8.4
		c1.1,3,2.8,5.7,5,8c2.3,2.3,4.9,4.1,7.8,5.4s6,2,9.1,2c3.2,0,6.3-0.4,9.2-1.3c3-0.9,5.7-2.2,8.1-3.9c2.4-1.7,4.2-3.7,5.6-6.1
		s2.1-5.1,2.1-8.1V365c-2.6,3.7-5.9,6.6-9.8,8.9s-8.5,3.4-13.6,3.4c-6,0-11.6-1.1-16.8-3.4s-9.8-5.4-13.8-9.4c-3.9-4-7-8.7-9.3-13.9
		c-2.2-5.3-3.3-10.9-3.3-16.9s1.1-11.7,3.3-16.9c2.3-5.3,5.4-9.9,9.3-13.9c4-4,8.6-7.2,13.8-9.5s10.8-3.4,16.8-3.4
		c5.1,0,9.7,1.1,13.6,3.4c3.9,2.2,7.2,5.1,9.8,8.8V292z M271.1,357.7c4.3,0,8-1.1,11.3-3.2c3.3-2.2,5.9-5.1,7.8-8.8
		c1.9-3.7,2.8-7.7,2.8-12.1s-1-8.5-2.9-12.1c-1.9-3.7-4.5-6.6-7.8-8.8c-3.3-2.2-7-3.3-11.2-3.3c-4.1,0-7.9,1.1-11.4,3.3
		c-3.4,2.2-6.2,5.1-8.2,8.7c-2,3.7-3.1,7.7-3.1,12.2s1,8.5,3.1,12.2c2,3.7,4.8,6.6,8.2,8.7C263.2,356.6,267,357.7,271.1,357.7z
		 M323,375l-0.1-83h20.3l0.1,7.4c2.8-3,6.2-5.3,10.1-7.1c3.9-1.8,8.2-2.7,12.7-2.7c3,0,6.1,0.4,9.1,1.3l-8,20.4
		c-2.1-0.8-4.2-1.2-6.3-1.2c-3.3,0-6.3,0.8-9,2.4c-2.7,1.5-4.8,3.7-6.4,6.4c-1.5,2.7-2.3,5.6-2.3,8.9V375H323z M436.5,292h20.3v83
		h-20.3l-0.9-10.3c-2.3,3.7-5.3,6.7-9,9s-8.1,3.4-13.2,3.4c-6.1,0-11.9-1.2-17.3-3.5s-10.1-5.5-14.2-9.6c-4-4.1-7.2-8.8-9.5-14.2
		c-2.3-5.4-3.4-11.1-3.4-17.3c0-5.9,1.1-11.5,3.2-16.7c2.2-5.2,5.3-9.8,9.2-13.7c3.9-3.9,8.5-7,13.6-9.2s10.7-3.3,16.6-3.3
		c5.5,0,10.4,1.2,14.7,3.7c4.4,2.4,8.1,5.5,11.1,9.3L436.5,292z M412.9,357.7c4.3,0,8.1-1.1,11.5-3.2c3.3-2.2,5.9-5.1,7.8-8.7
		c1.9-3.7,2.8-7.8,2.8-12.2c0-4.5-0.9-8.5-2.8-12.2s-4.5-6.6-7.9-8.8c-3.3-2.2-7.1-3.2-11.4-3.2s-8.2,1.1-11.7,3.3
		c-3.5,2.2-6.3,5.1-8.4,8.7c-2,3.7-3.1,7.7-3.1,12.2s1.1,8.5,3.2,12.2s4.9,6.6,8.4,8.7S408.7,357.7,412.9,357.7z M465,375v-83h20.3
		v7.4c2.8-3,6.2-5.3,10.1-7.1c3.9-1.8,8.2-2.7,12.7-2.7c5.8,0,11,1.4,15.9,4.1s8.7,6.3,11.6,10.9c2.9-4.5,6.8-8.2,11.6-10.9
		s10.1-4.1,15.9-4.1c6.1,0,11.6,1.5,16.5,4.5c5,2.9,8.9,6.9,11.9,11.9c3,4.9,4.5,10.4,4.5,16.5V375h-20.3v-47.1
		c0-3.2-0.8-6.1-2.4-8.8c-1.5-2.7-3.7-4.9-6.3-6.5c-2.6-1.7-5.5-2.5-8.8-2.5s-6.2,0.8-8.9,2.4c-2.6,1.5-4.7,3.7-6.3,6.3
		c-1.6,2.7-2.4,5.7-2.4,9V375h-20.3v-47.1c0-3.4-0.8-6.4-2.3-9c-1.5-2.7-3.7-4.8-6.3-6.3c-2.7-1.6-5.6-2.4-8.9-2.4
		c-3.2,0-6.1,0.8-8.8,2.5c-2.7,1.6-4.8,3.8-6.4,6.5s-2.3,5.6-2.3,8.8v47H465z"/>
</g>
</svg>
