<svg width="241" height="21" viewBox="0 0 241 21" fill="none" xmlns="http://www.w3.org/2000/svg">
<path d="M10.204 20.364C8.87862 20.364 7.63263 20.1027 6.46596 19.58C5.29929 19.048 4.27262 18.3153 3.38596 17.382C2.50862 16.4487 1.81796 15.3707 1.31396 14.148C0.819291 12.916 0.571958 11.6 0.571958 10.2C0.571958 8.79067 0.819291 7.47467 1.31396 6.252C1.81796 5.02 2.50862 3.942 3.38596 3.018C4.27262 2.08467 5.29929 1.35667 6.46596 0.833999C7.63263 0.301999 8.87862 0.0359983 10.204 0.0359983C11.7906 0.0359983 13.2513 0.404665 14.586 1.142C15.9206 1.87 17.0266 2.84533 17.904 4.068L14.852 5.706C14.3013 5.02467 13.6153 4.47867 12.794 4.068C11.982 3.65733 11.1186 3.452 10.204 3.452C9.34529 3.452 8.53796 3.62933 7.78196 3.984C7.02596 4.32933 6.36329 4.81467 5.79396 5.44C5.22462 6.056 4.78129 6.77467 4.46396 7.596C4.14662 8.408 3.98796 9.276 3.98796 10.2C3.98796 11.1333 4.14662 12.006 4.46396 12.818C4.79062 13.63 5.23862 14.3487 5.80796 14.974C6.37729 15.59 7.03529 16.0753 7.78196 16.43C8.53796 16.7753 9.34529 16.948 10.204 16.948C11.1373 16.948 12.0053 16.7427 12.808 16.332C13.62 15.912 14.3013 15.3613 14.852 14.68L17.904 16.332C17.0266 17.5453 15.9206 18.5207 14.586 19.258C13.2513 19.9953 11.7906 20.364 10.204 20.364ZM35.0605 0.399999H38.9945L46.1205 20H42.4945L41.2345 16.528H32.8345L31.5745 20H27.9485L35.0605 0.399999ZM34.0805 13.112H39.9745L37.0205 5.034L34.0805 13.112ZM62.7497 20.364C61.667 20.364 60.6263 20.196 59.6277 19.86C58.6383 19.5147 57.7703 19.0247 57.0237 18.39C56.277 17.746 55.7403 16.976 55.4137 16.08L58.6197 14.904C58.7503 15.2773 59.0163 15.618 59.4177 15.926C59.819 16.234 60.309 16.4813 60.8877 16.668C61.4663 16.8547 62.087 16.948 62.7497 16.948C63.431 16.948 64.0657 16.8453 64.6537 16.64C65.251 16.4253 65.7317 16.1313 66.0957 15.758C66.4597 15.3753 66.6417 14.932 66.6417 14.428C66.6417 13.9147 66.4503 13.4947 66.0677 13.168C65.685 12.832 65.195 12.566 64.5977 12.37C64.0003 12.174 63.3843 12.0247 62.7497 11.922C61.359 11.7073 60.113 11.376 59.0117 10.928C57.9103 10.48 57.0377 9.85933 56.3937 9.066C55.759 8.27267 55.4417 7.246 55.4417 5.986C55.4417 4.80067 55.7823 3.76467 56.4637 2.878C57.145 1.99133 58.041 1.30067 59.1517 0.805999C60.2623 0.311333 61.4617 0.0639997 62.7497 0.0639997C63.823 0.0639997 64.859 0.232 65.8577 0.568C66.8563 0.903999 67.729 1.394 68.4757 2.038C69.2317 2.682 69.773 3.45667 70.0997 4.362L66.8797 5.524C66.749 5.15067 66.483 4.81 66.0817 4.502C65.6803 4.194 65.1903 3.95133 64.6117 3.774C64.033 3.58733 63.4123 3.494 62.7497 3.494C62.087 3.48467 61.457 3.592 60.8597 3.816C60.2717 4.03067 59.791 4.32467 59.4177 4.698C59.0443 5.07133 58.8577 5.50067 58.8577 5.986C58.8577 6.61133 59.0303 7.08267 59.3757 7.4C59.7303 7.71733 60.2017 7.95067 60.7897 8.1C61.3777 8.24 62.031 8.37067 62.7497 8.492C64.0563 8.69733 65.265 9.04267 66.3757 9.528C67.4863 10.0133 68.3777 10.662 69.0497 11.474C69.7217 12.2767 70.0577 13.2613 70.0577 14.428C70.0577 15.6133 69.7217 16.654 69.0497 17.55C68.3777 18.4367 67.4863 19.1273 66.3757 19.622C65.265 20.1167 64.0563 20.364 62.7497 20.364ZM81.6484 20V0.399999H93.9404V3.816H85.0644V7.792H92.1064V11.208H85.0644V16.584H93.9404V20H81.6484ZM127.598 20.364C126.515 20.364 125.475 20.196 124.476 19.86C123.487 19.5147 122.619 19.0247 121.872 18.39C121.125 17.746 120.589 16.976 120.262 16.08L123.468 14.904C123.599 15.2773 123.865 15.618 124.266 15.926C124.667 16.234 125.157 16.4813 125.736 16.668C126.315 16.8547 126.935 16.948 127.598 16.948C128.279 16.948 128.914 16.8453 129.502 16.64C130.099 16.4253 130.58 16.1313 130.944 15.758C131.308 15.3753 131.49 14.932 131.49 14.428C131.49 13.9147 131.299 13.4947 130.916 13.168C130.533 12.832 130.043 12.566 129.446 12.37C128.849 12.174 128.233 12.0247 127.598 11.922C126.207 11.7073 124.961 11.376 123.86 10.928C122.759 10.48 121.886 9.85933 121.242 9.066C120.607 8.27267 120.29 7.246 120.29 5.986C120.29 4.80067 120.631 3.76467 121.312 2.878C121.993 1.99133 122.889 1.30067 124 0.805999C125.111 0.311333 126.31 0.0639997 127.598 0.0639997C128.671 0.0639997 129.707 0.232 130.706 0.568C131.705 0.903999 132.577 1.394 133.324 2.038C134.08 2.682 134.621 3.45667 134.948 4.362L131.728 5.524C131.597 5.15067 131.331 4.81 130.93 4.502C130.529 4.194 130.039 3.95133 129.46 3.774C128.881 3.58733 128.261 3.494 127.598 3.494C126.935 3.48467 126.305 3.592 125.708 3.816C125.12 4.03067 124.639 4.32467 124.266 4.698C123.893 5.07133 123.706 5.50067 123.706 5.986C123.706 6.61133 123.879 7.08267 124.224 7.4C124.579 7.71733 125.05 7.95067 125.638 8.1C126.226 8.24 126.879 8.37067 127.598 8.492C128.905 8.69733 130.113 9.04267 131.224 9.528C132.335 10.0133 133.226 10.662 133.898 11.474C134.57 12.2767 134.906 13.2613 134.906 14.428C134.906 15.6133 134.57 16.654 133.898 17.55C133.226 18.4367 132.335 19.1273 131.224 19.622C130.113 20.1167 128.905 20.364 127.598 20.364ZM160.626 0.399999V3.816H154.634V20H151.218V3.816H145.226V0.399999H160.626ZM179.677 20.364C178.109 20.364 176.732 19.9813 175.547 19.216C174.371 18.4507 173.456 17.424 172.803 16.136C172.149 14.8387 171.823 13.4013 171.823 11.824V0.399999H175.239V11.824C175.239 12.7573 175.411 13.616 175.757 14.4C176.111 15.1747 176.615 15.7953 177.269 16.262C177.931 16.7193 178.734 16.948 179.677 16.948C180.629 16.948 181.431 16.7193 182.085 16.262C182.738 15.7953 183.233 15.1747 183.569 14.4C183.914 13.616 184.087 12.7573 184.087 11.824V0.399999H187.503V11.824C187.503 13.0093 187.316 14.12 186.943 15.156C186.569 16.1827 186.037 17.088 185.347 17.872C184.656 18.656 183.83 19.2673 182.869 19.706C181.917 20.1447 180.853 20.364 179.677 20.364ZM198.926 20V0.399999H205.422C206.775 0.399999 208.04 0.656666 209.216 1.17C210.401 1.674 211.442 2.37867 212.338 3.284C213.243 4.18 213.948 5.22067 214.452 6.406C214.965 7.582 215.222 8.84667 215.222 10.2C215.222 11.5533 214.965 12.8227 214.452 14.008C213.948 15.184 213.243 16.2247 212.338 17.13C211.442 18.026 210.401 18.7307 209.216 19.244C208.04 19.748 206.775 20 205.422 20H198.926ZM202.342 16.584H205.422C206.29 16.584 207.106 16.4207 207.872 16.094C208.646 15.758 209.328 15.3007 209.916 14.722C210.504 14.134 210.966 13.4573 211.302 12.692C211.638 11.9173 211.806 11.0867 211.806 10.2C211.806 9.31333 211.638 8.48733 211.302 7.722C210.966 6.95667 210.504 6.28 209.916 5.692C209.328 5.104 208.651 4.64667 207.886 4.32C207.12 3.984 206.299 3.816 205.422 3.816H202.342V16.584ZM236.674 0.399999H240.706L233.972 11.166V20H230.556V11.166L223.822 0.399999H227.854L232.264 7.442L236.674 0.399999Z" fill="#333333"/>
</svg>
