<svg width="63" height="63" viewBox="0 0 63 63" fill="none" xmlns="http://www.w3.org/2000/svg">
<path fill-rule="evenodd" clip-rule="evenodd" d="M30.3726 2.29248L24.9858 5.74211H38.0097L32.6229 2.29248C32.281 2.07317 31.8901 1.9642 31.4978 1.9642C31.1055 1.9642 30.7145 2.07317 30.3726 2.29248ZM29.3143 0.63748L21.3434 5.74211H9.48408C7.97483 5.74211 6.74619 6.97076 6.74619 8.48001V15.0942L1.90532 18.1942C0.736605 18.9434 0.0391907 20.2183 0.0391907 21.6063V33.0972C0.0390196 33.1078 0.0390199 33.1184 0.0391907 33.1289V58.948C0.0391907 61.1819 1.85628 62.999 4.09019 62.999H58.9053C61.1392 62.999 62.9563 61.1819 62.9563 58.948V33.1865C62.96 33.1378 62.96 33.0887 62.9563 33.0396V21.6063C62.9563 20.2183 62.2589 18.9434 61.0902 18.1942H61.0916L56.2531 15.0957V8.48001C56.2531 6.97076 55.0244 5.74211 53.5152 5.74211H41.6537L33.684 0.63748C32.3559 -0.212493 30.641 -0.212493 29.3143 0.63748ZM2.96506 19.8492L6.74619 17.4276V32.5245C6.74619 33.0666 7.18616 33.5066 7.72829 33.5066C8.27042 33.5066 8.71039 33.0666 8.71039 32.5245V8.48001C8.71039 8.05366 9.05637 7.70768 9.48272 7.70768H53.5138C53.9402 7.70768 54.2862 8.05366 54.2862 8.48001V32.5245C54.2862 33.0666 54.7261 33.5066 55.2683 33.5066H55.271C55.8131 33.5066 56.2531 33.0666 56.2531 32.5245V17.4291L60.0318 19.8492C60.6339 20.2347 60.9935 20.8912 60.9935 21.6063V32.5762L31.4991 51.4655L2.00339 32.5754V21.6063C2.00339 20.8912 2.363 20.2347 2.96506 19.8492ZM32.0303 53.4596L60.9935 34.9107V58.948C60.9935 60.099 60.0577 61.0348 58.9067 61.0348H4.09019C2.93918 61.0348 2.00339 60.099 2.00339 58.948V34.9099L30.9692 53.4596C31.1299 53.5632 31.3152 53.6149 31.4991 53.6149H31.5004C31.6843 53.6149 31.8682 53.5632 32.0303 53.4596ZM26.6063 32.67C26.7984 32.862 27.049 32.9574 27.301 32.9574C27.553 32.9574 27.8036 32.862 27.9957 32.67L42.7708 17.8948C43.1549 17.5107 43.1549 16.8896 42.7708 16.5055C42.3867 16.1213 41.7656 16.1213 41.3814 16.5055L27.301 30.5859L21.6168 24.9017C21.2327 24.5176 20.6115 24.5176 20.2274 24.9017C19.8433 25.2858 19.8433 25.9069 20.2274 26.2911L26.6063 32.67Z" fill="#BDBDBD"/>
</svg>
