<svg width="83" height="60" viewBox="0 0 83 60" fill="none" xmlns="http://www.w3.org/2000/svg">
<path fill-rule="evenodd" clip-rule="evenodd" d="M4.80505 52.3459H32.8402V58.0087H20.9888C20.4391 58.0087 19.993 58.4547 19.993 59.0044C19.993 59.554 20.4391 60.0001 20.9888 60.0001H57.1331C57.6827 60.0001 58.1288 59.554 58.1288 59.0044C58.1288 58.4547 57.6827 58.0087 57.1331 58.0087H45.2828V52.3459H73.318C75.494 52.3459 77.2637 50.5762 77.2637 48.4002V28.5112C77.2637 27.9615 76.8176 27.5155 76.268 27.5155C75.7183 27.5155 75.2723 27.9615 75.2723 28.5112V48.4002C75.2723 49.4782 74.396 50.3544 73.318 50.3544H4.80505C3.72703 50.3544 2.8508 49.4782 2.8508 48.4002V3.94763C2.8508 2.8696 3.72703 1.99338 4.80505 1.99338H73.318C74.396 1.99338 75.2723 2.8696 75.2723 3.94763V4.29414C75.2723 4.84377 75.7183 5.28985 76.268 5.28985C76.8176 5.28985 77.2637 4.84377 77.2637 4.29414V3.94763C77.2637 1.77167 75.494 0.00195312 73.318 0.00195312H4.80505C2.62909 0.00195312 0.859375 1.77167 0.859375 3.94763V48.4002C0.859375 50.5762 2.62909 52.3459 4.80505 52.3459ZM43.2913 52.3459H34.8317V58.0087H43.2913V52.3459ZM38.9408 27.0872C35.4704 27.0872 32.401 24.1479 31.2725 19.8464C30.8915 19.7667 30.5277 19.5968 30.2051 19.3432C29.5825 18.8547 29.1722 18.0953 29.078 17.2615C28.9147 15.8158 29.7298 14.4895 30.9486 14.0925C31.0123 13.5911 31.0983 13.1042 31.2058 12.6337C31.1809 12.5588 31.1646 12.4798 31.1582 12.3975C31.1321 12.072 31.2662 11.7708 31.4942 11.5706C31.8945 10.306 32.4661 9.18612 33.1949 8.25366C34.6553 6.38172 36.6427 5.39265 38.9408 5.39265C41.7352 5.39265 44.0201 6.84783 45.4475 9.34726C45.573 9.46042 45.6714 9.60711 45.7274 9.77947C45.7463 9.83752 45.7595 9.89602 45.7674 9.95442C46.3446 11.1441 46.7448 12.5362 46.937 14.0938C48.1531 14.4935 48.967 15.8184 48.8037 17.2615C48.7094 18.0966 48.2992 18.8547 47.6765 19.3432C47.3539 19.5968 46.9902 19.7667 46.6091 19.8464C45.4807 24.1492 42.4112 27.0886 38.9408 27.0886V27.0872ZM32.851 15.0497C32.8998 14.4222 32.9884 13.8149 33.114 13.2359C38.5176 12.7444 42.4904 11.7712 44.1865 11.2999C44.6649 12.4644 44.9342 13.7708 45.0293 15.0471C45.0492 15.3166 45.1766 15.5648 45.3837 15.7374C45.5908 15.91 45.859 15.9923 46.1259 15.9645C46.1644 15.9605 46.1989 15.9605 46.2321 15.9645C46.6065 16.0123 46.8826 16.5128 46.8242 17.0358C46.7884 17.3438 46.6516 17.6134 46.4458 17.7753C46.3648 17.8391 46.2414 17.9081 46.0847 17.9054C46.0595 17.8988 46.0356 17.8935 46.0104 17.8882C45.7515 17.8364 45.482 17.8882 45.2616 18.0355C45.0412 18.1829 44.8885 18.4113 44.8368 18.6701C44.0813 22.4538 41.6558 25.0958 38.9408 25.0958C36.2258 25.0958 33.8003 22.4538 33.0449 18.6701C32.9931 18.4113 32.8404 18.1829 32.62 18.0369C32.4554 17.9267 32.2629 17.8696 32.0678 17.8696V17.8669C32.0027 17.8669 31.9363 17.8736 31.8713 17.8868C31.846 17.8922 31.8208 17.8975 31.7956 17.9041C31.6416 17.9121 31.5168 17.8391 31.4345 17.774C31.2287 17.612 31.0906 17.3425 31.0561 17.0345C30.9964 16.5114 31.2725 16.0109 31.6469 15.9631C31.6814 15.9591 31.7173 15.9591 31.7544 15.9631C32.0226 15.991 32.2895 15.9087 32.4952 15.7374C32.7024 15.5662 32.8298 15.3179 32.851 15.0497ZM43.1789 9.50597C41.4576 9.95757 38.1194 10.7202 33.7714 11.1711C34.0489 10.5363 34.3818 9.96521 34.7641 9.47507C35.8488 8.08505 37.2534 7.38009 38.9395 7.38009C40.8215 7.38009 42.2065 8.22783 43.1789 9.50597ZM55.8545 46.3204C55.8996 46.8382 56.3351 47.2285 56.8449 47.2285L56.8436 47.2272C56.8728 47.2272 56.902 47.2258 56.9325 47.2232C57.4808 47.1754 57.8857 46.6921 57.8366 46.1438L57.8359 46.1363C57.8144 45.8934 57.3083 40.1866 57.0732 38.0135C56.5302 32.9818 53.6812 29.7252 49.2602 29.0787C45.8801 28.5848 43.3298 28.4746 43.2235 28.4706C43.0231 28.4613 42.8239 28.5157 42.654 28.622L38.9194 30.9586L35.1822 28.622C35.0109 28.5157 34.8131 28.4613 34.6126 28.4719C34.5051 28.4759 31.9561 28.5848 28.576 29.08C24.155 29.7279 21.3073 32.9832 20.7629 38.0148C20.5369 40.1161 20.055 45.5226 20.0039 46.0961L20.0039 46.0968L19.9996 46.1452C19.9518 46.6921 20.3554 47.1754 20.9037 47.2245C21.452 47.271 21.9339 46.8687 21.983 46.3204L21.9871 46.2746C22.0366 45.7195 22.5186 40.3159 22.7437 38.2286C23.3133 32.9526 26.3867 31.4126 28.8654 31.0502C31.4808 30.6678 33.6249 30.5204 34.3922 30.4766L37.9671 32.7119L36.6253 36.6712C36.4487 37.1917 36.7289 37.7572 37.2493 37.9338C37.7697 38.1104 38.3353 37.8302 38.5119 37.3098L38.9194 36.107L41.183 42.7836L38.9194 45.2503L36.6572 42.7836L37.0926 41.4998C37.2692 40.9793 36.9891 40.4138 36.4687 40.2372C35.9482 40.0606 35.3827 40.3408 35.2061 40.8612L34.5821 42.7039C34.4653 43.0491 34.5463 43.4288 34.7919 43.697L38.1866 47.3984C38.3751 47.6042 38.642 47.721 38.9208 47.721L38.9168 47.7197C39.1956 47.7197 39.4624 47.6028 39.651 47.397L43.047 43.6957C43.2939 43.4275 43.3736 43.0464 43.2568 42.7026L39.87 32.7144L43.4453 30.4766C44.2126 30.5204 46.3567 30.6678 48.9721 31.0502C51.4495 31.4126 54.5229 32.9526 55.0938 38.2286C55.3198 40.311 55.7993 45.7003 55.8501 46.2716L55.8545 46.3204ZM59.2214 30.5995C59.0209 30.5995 58.8178 30.561 58.6253 30.4801C58.0425 30.2384 57.6654 29.6742 57.6654 29.0436V26.1095H57.0056C55.1483 26.1095 53.6375 24.5987 53.6375 22.7414V10.0666C53.6375 8.2093 55.1483 6.69847 57.0056 6.69847H78.7719C80.6292 6.69847 82.14 8.2093 82.14 10.0666V22.7414C82.14 24.5987 80.6292 26.1095 78.7719 26.1095H64.3553L60.3207 30.1442C60.022 30.4429 59.6263 30.6009 59.2227 30.6009L59.2214 30.5995ZM57.0056 8.68989C56.2462 8.68989 55.6289 9.30724 55.6289 10.0666V22.7414C55.6289 23.5008 56.2462 24.1181 57.0056 24.1181H58.1022C58.9599 24.1181 59.6569 24.8151 59.6569 25.6728V27.9908L63.0742 24.5735C63.3676 24.2801 63.7579 24.1181 64.1734 24.1181H78.7706C79.5299 24.1181 80.1473 23.5008 80.1473 22.7414V10.0666C80.1473 9.30724 79.5299 8.68989 78.7706 8.68989H57.0056Z" fill="#BDBDBD"/>
</svg>
