<svg width="85" height="63" viewBox="0 0 85 63" fill="none" xmlns="http://www.w3.org/2000/svg">
<path fill-rule="evenodd" clip-rule="evenodd" d="M58.4499 31.96V4.40209C58.4499 2.92308 57.2467 1.71989 55.7676 1.71989H47.8487V1.58499C47.8487 1.35375 47.6187 1.16586 47.3344 1.16586H45.5627V1.07433C45.5627 0.480557 44.9738 0 44.2463 0H40.8258C40.0996 0 39.5094 0.480557 39.5094 1.07433V1.16586H37.7377C37.4547 1.16586 37.2235 1.35375 37.2235 1.58499V1.71989H29.3045C27.8255 1.71989 26.6223 2.92308 26.6223 4.40209V43.7752C26.6223 45.2542 27.8255 46.4574 29.3045 46.4574H49.2771C50.9296 48.4098 53.3938 49.6539 56.1458 49.6539C61.1092 49.6539 65.1475 45.6155 65.1475 40.6522C65.1475 36.4862 62.2979 32.9814 58.4474 31.96H58.4499ZM29.3057 44.2907C29.0215 44.2907 28.7902 44.0594 28.7902 43.7752V4.40209C28.7902 4.11785 29.0215 3.88661 29.3057 3.88661H37.2247V3.99862C37.2247 4.22986 37.4547 4.41775 37.7389 4.41775H47.3356C47.6187 4.41775 47.8499 4.22986 47.8499 3.99862V3.88661H55.7689C56.0531 3.88661 56.2843 4.11785 56.2843 4.40209V31.6565C56.2615 31.6565 56.2389 31.6547 56.2163 31.6529C56.1937 31.6511 56.1711 31.6493 56.1482 31.6493C51.1849 31.6493 47.1465 35.6876 47.1465 40.651C47.1465 41.9469 47.4272 43.1754 47.9222 44.2895H29.3069L29.3057 44.2907ZM56.147 48.5699C51.7811 48.5699 48.2293 45.0182 48.2293 40.651C48.2293 36.2838 51.7811 32.7332 56.147 32.7332C60.513 32.7332 64.066 36.285 64.066 40.651C64.066 45.0169 60.5142 48.5699 56.147 48.5699ZM35.7734 9.69199H33.6066V11.8587H35.7734V9.69199ZM60.4154 10.6764H79.0391C79.5714 10.6764 80.0026 11.1075 80.0026 11.6399V55.0044C80.0026 55.5367 79.5714 55.9679 79.0391 55.9679H5.95958C5.42723 55.9679 4.99606 55.5367 4.99606 55.0044V11.6399C4.99606 11.1075 5.42723 10.6764 5.95958 10.6764H24.5833V12.6034H6.9231V54.0409H78.0756V12.6034H60.4154V10.6764ZM49.5782 60.499C50.9151 60.499 51.999 59.415 51.999 58.0781H52.0002H84.4276V58.2227C84.4276 60.8615 82.2874 63.0017 79.6473 63.0017H5.35254C2.71249 63.0017 0.572266 60.8627 0.572266 58.2227V58.0781H33.0008V58.1046C33.0008 59.4271 34.0727 60.499 35.3952 60.499H49.5782ZM38.6758 9.69199H51.4665V11.8587H38.6758V9.69199ZM35.7734 16.5539H33.6066V18.7206H35.7734V16.5539ZM38.6758 16.5539H51.4665V18.7206H38.6758V16.5539ZM35.7734 23.4117H33.6066V25.5784H35.7734V23.4117ZM38.6758 23.4117H51.4665V25.5784H38.6758V23.4117ZM35.7734 30.2736H33.6066V32.4403H35.7734V30.2736ZM38.6758 30.2736H51.4665V32.4403H38.6758V30.2736ZM52.8408 39.2922L54.9702 41.2518L59.3205 37.0207L60.8308 38.5732L55.0123 44.2339L51.3738 40.8868L52.8408 39.2922Z" fill="#BDBDBD"/>
</svg>
