<svg width="366" height="254" viewBox="0 0 366 254" fill="none" xmlns="http://www.w3.org/2000/svg">
<g style="mix-blend-mode:plus-lighter">
<path d="M44.0305 25.6219H56.3227V76H44.0305L43.4763 69.7531C42.0993 72.0033 40.2689 73.8337 37.9851 75.2443C35.7349 76.6213 33.0648 77.3098 29.975 77.3098C26.247 77.3098 22.7541 76.6045 19.4963 75.194C16.2385 73.7834 13.367 71.8354 10.8817 69.3501C8.42994 66.8648 6.49878 63.9932 5.08819 60.7354C3.71119 57.4776 3.02269 53.9848 3.02269 50.2568C3.02269 46.6631 3.6776 43.2878 4.98743 40.1308C6.33085 36.9738 8.19484 34.203 10.5794 31.8184C12.964 29.4338 15.718 27.5698 18.8414 26.2264C21.9649 24.883 25.3234 24.2113 28.917 24.2113C32.242 24.2113 35.2143 24.9502 37.834 26.4279C40.4872 27.9057 42.7374 29.7865 44.5846 32.0703L44.0305 25.6219ZM29.6727 65.471C32.2924 65.471 34.6098 64.8161 36.6249 63.5062C38.64 62.1964 40.2185 60.4332 41.3604 58.2165C42.5023 55.9663 43.0733 53.4978 43.0733 50.8109C43.0733 48.0905 42.5023 45.622 41.3604 43.4054C40.2185 41.1551 38.6232 39.3751 36.5745 38.0653C34.5594 36.7555 32.2588 36.1005 29.6727 36.1005C27.0866 36.1005 24.7189 36.7722 22.5694 38.1157C20.4535 39.4255 18.7574 41.1887 17.4812 43.4054C16.2385 45.622 15.6172 48.0905 15.6172 50.8109C15.6172 53.5314 16.2553 55.9999 17.5316 58.2165C18.8078 60.4332 20.5039 62.1964 22.6198 63.5062C24.7692 64.8161 27.1202 65.471 29.6727 65.471ZM62.3311 25.6219H74.6234V76H62.3311V25.6219ZM68.578 19.1231C66.7644 19.1231 65.2362 18.5354 63.9936 17.3599C62.7509 16.1508 62.1296 14.6395 62.1296 12.8258C62.1296 11.0458 62.7509 9.55127 63.9936 8.3422C65.2362 7.13312 66.7476 6.52858 68.5276 6.52858C70.3076 6.52858 71.8022 7.13312 73.0113 8.3422C74.2539 9.55127 74.8753 11.0458 74.8753 12.8258C74.8753 14.6395 74.2707 16.1508 73.0616 17.3599C71.8526 18.5354 70.358 19.1231 68.578 19.1231ZM80.8844 76V0.432831H93.1767V76H80.8844ZM99.2409 25.6219H111.533V76H99.2409V25.6219ZM105.488 19.1231C103.674 19.1231 102.146 18.5354 100.903 17.3599C99.6608 16.1508 99.0394 14.6395 99.0394 12.8258C99.0394 11.0458 99.6608 9.55127 100.903 8.3422C102.146 7.13312 103.657 6.52858 105.437 6.52858C107.217 6.52858 108.712 7.13312 109.921 8.3422C111.164 9.55127 111.785 11.0458 111.785 12.8258C111.785 14.6395 111.181 16.1508 109.971 17.3599C108.762 18.5354 107.268 19.1231 105.488 19.1231ZM156.417 25.6219H168.709V76H156.417L155.863 69.7531C154.486 72.0033 152.655 73.8337 150.372 75.2443C148.121 76.6213 145.451 77.3098 142.361 77.3098C138.633 77.3098 135.141 76.6045 131.883 75.194C128.625 73.7834 125.753 71.8354 123.268 69.3501C120.816 66.8648 118.885 63.9932 117.475 60.7354C116.098 57.4776 115.409 53.9848 115.409 50.2568C115.409 46.6631 116.064 43.2878 117.374 40.1308C118.717 36.9738 120.581 34.203 122.966 31.8184C125.35 29.4338 128.104 27.5698 131.228 26.2264C134.351 24.883 137.71 24.2113 141.304 24.2113C144.628 24.2113 147.601 24.9502 150.22 26.4279C152.874 27.9057 155.124 29.7865 156.971 32.0703L156.417 25.6219ZM142.059 65.471C144.679 65.471 146.996 64.8161 149.011 63.5062C151.026 62.1964 152.605 60.4332 153.747 58.2165C154.889 55.9663 155.46 53.4978 155.46 50.8109C155.46 48.0905 154.889 45.622 153.747 43.4054C152.605 41.1551 151.01 39.3751 148.961 38.0653C146.946 36.7555 144.645 36.1005 142.059 36.1005C139.473 36.1005 137.105 36.7722 134.956 38.1157C132.84 39.4255 131.144 41.1887 129.868 43.4054C128.625 45.622 128.004 48.0905 128.004 50.8109C128.004 53.5314 128.642 55.9999 129.918 58.2165C131.194 60.4332 132.89 62.1964 135.006 63.5062C137.156 64.8161 139.507 65.471 142.059 65.471ZM34.3075 153.31C28.6651 153.31 23.7113 151.933 19.446 149.179C15.2142 146.425 11.9228 142.73 9.57184 138.096C7.22086 133.427 6.04537 128.255 6.04537 122.579V81.4706H18.3376V122.579C18.3376 125.938 18.959 129.028 20.2016 131.849C21.4779 134.636 23.2915 136.87 25.6425 138.549C28.027 140.195 30.9154 141.018 34.3075 141.018C37.7332 141.018 40.6216 140.195 42.9725 138.549C45.3235 136.87 47.1035 134.636 48.3126 131.849C49.5553 129.028 50.1766 125.938 50.1766 122.579V81.4706H62.4689V122.579C62.4689 126.845 61.7971 130.841 60.4537 134.569C59.1103 138.264 57.196 141.521 54.7106 144.343C52.2253 147.164 49.253 149.364 45.7937 150.942C42.368 152.521 38.5393 153.31 34.3075 153.31ZM115.07 120.161V152H102.778V123.385C102.778 121.404 102.291 119.607 101.317 117.995C100.343 116.349 99.0329 115.056 97.3872 114.116C95.7751 113.142 93.9783 112.655 91.9967 112.655C90.0152 112.655 88.2016 113.142 86.5559 114.116C84.9438 115.056 83.6507 116.349 82.6768 117.995C81.7364 119.607 81.2662 121.404 81.2662 123.385V152H68.9739L68.9235 101.622H81.2158L81.2662 106.106C82.979 104.292 85.0277 102.865 87.4123 101.823C89.7969 100.749 92.3662 100.211 95.1202 100.211C98.781 100.211 102.123 101.118 105.145 102.932C108.168 104.712 110.569 107.113 112.349 110.136C114.163 113.125 115.07 116.467 115.07 120.161ZM121.077 101.622H133.369V152H121.077V101.622ZM127.324 95.1231C125.51 95.1231 123.982 94.5354 122.739 93.3599C121.497 92.1508 120.875 90.6395 120.875 88.8258C120.875 87.0458 121.497 85.5513 122.739 84.3422C123.982 83.1331 125.493 82.5286 127.273 82.5286C129.053 82.5286 130.548 83.1331 131.757 84.3422C133 85.5513 133.621 87.0458 133.621 88.8258C133.621 90.6395 133.016 92.1508 131.807 93.3599C130.598 94.5354 129.104 95.1231 127.324 95.1231ZM170.051 152H154.181L135.844 101.572H148.942L162.141 137.844L175.29 101.572H188.388L170.051 152ZM210.998 153.31C206.363 153.31 202.131 152.118 198.302 149.733C194.507 147.348 191.468 144.141 189.184 140.111C186.934 136.081 185.809 131.63 185.809 126.761C185.809 123.1 186.464 119.674 187.773 116.483C189.083 113.259 190.88 110.438 193.164 108.02C195.481 105.568 198.168 103.654 201.224 102.277C204.281 100.9 207.538 100.211 210.998 100.211C214.927 100.211 218.521 101.051 221.779 102.73C225.07 104.376 227.858 106.643 230.141 109.531C232.425 112.42 234.088 115.711 235.129 119.405C236.17 123.1 236.405 126.962 235.834 130.992H199.008C199.478 132.873 200.25 134.569 201.325 136.081C202.4 137.558 203.76 138.751 205.406 139.657C207.051 140.531 208.915 140.984 210.998 141.018C213.147 141.051 215.095 140.547 216.842 139.506C218.622 138.431 220.099 136.987 221.275 135.174L233.819 138.096C231.77 142.563 228.714 146.223 224.65 149.078C220.586 151.899 216.036 153.31 210.998 153.31ZM198.605 121.773H223.391C223.021 119.758 222.232 117.944 221.023 116.332C219.847 114.687 218.386 113.377 216.64 112.403C214.894 111.429 213.013 110.942 210.998 110.942C208.983 110.942 207.119 111.429 205.406 112.403C203.693 113.343 202.232 114.636 201.023 116.282C199.847 117.894 199.041 119.724 198.605 121.773ZM240.051 152L240.001 101.622H252.293L252.343 106.106C254.056 104.292 256.105 102.865 258.489 101.823C260.874 100.749 263.443 100.211 266.197 100.211C268.044 100.211 269.892 100.48 271.739 101.017L266.902 113.41C265.626 112.907 264.35 112.655 263.074 112.655C261.092 112.655 259.279 113.142 257.633 114.116C256.021 115.056 254.728 116.349 253.754 117.995C252.813 119.607 252.343 121.404 252.343 123.385V152H240.051ZM289.033 152.907C286.413 152.739 283.877 152.218 281.425 151.345C279.007 150.438 276.858 149.212 274.977 147.667C273.096 146.123 271.652 144.275 270.645 142.126L281.022 137.693C281.425 138.364 282.08 139.086 282.987 139.859C283.894 140.598 284.969 141.219 286.211 141.723C287.488 142.227 288.881 142.479 290.393 142.479C291.669 142.479 292.878 142.311 294.02 141.975C295.196 141.605 296.136 141.051 296.841 140.312C297.58 139.573 297.95 138.616 297.95 137.441C297.95 136.198 297.513 135.241 296.64 134.569C295.8 133.864 294.725 133.343 293.415 133.007C292.139 132.638 290.897 132.302 289.688 132C286.497 131.362 283.525 130.371 280.771 129.028C278.05 127.684 275.85 125.955 274.171 123.839C272.525 121.689 271.703 119.103 271.703 116.08C271.703 112.755 272.576 109.884 274.322 107.466C276.102 105.048 278.403 103.184 281.224 101.874C284.079 100.564 287.152 99.909 290.443 99.909C294.44 99.909 298.101 100.749 301.426 102.428C304.784 104.074 307.437 106.408 309.385 109.43L299.662 115.174C299.192 114.368 298.537 113.629 297.698 112.957C296.858 112.252 295.901 111.681 294.826 111.244C293.751 110.774 292.626 110.505 291.451 110.438C289.939 110.371 288.562 110.505 287.32 110.841C286.077 111.177 285.07 111.748 284.297 112.554C283.558 113.36 283.189 114.435 283.189 115.778C283.189 117.054 283.693 118.012 284.7 118.65C285.708 119.254 286.917 119.724 288.327 120.06C289.771 120.396 291.148 120.766 292.458 121.169C295.414 122.143 298.185 123.335 300.771 124.745C303.39 126.156 305.489 127.886 307.068 129.934C308.646 131.983 309.402 134.435 309.335 137.29C309.335 140.547 308.361 143.402 306.413 145.854C304.465 148.272 301.946 150.119 298.856 151.395C295.8 152.672 292.525 153.175 289.033 152.907ZM337.321 153.31C332.686 153.31 328.454 152.118 324.626 149.733C320.83 147.348 317.791 144.141 315.507 140.111C313.257 136.081 312.132 131.63 312.132 126.761C312.132 123.1 312.787 119.674 314.097 116.483C315.406 113.259 317.203 110.438 319.487 108.02C321.804 105.568 324.491 103.654 327.547 102.277C330.604 100.9 333.862 100.211 337.321 100.211C341.25 100.211 344.844 101.051 348.102 102.73C351.393 104.376 354.181 106.643 356.464 109.531C358.748 112.42 360.411 115.711 361.452 119.405C362.493 123.1 362.728 126.962 362.157 130.992H325.331C325.801 132.873 326.573 134.569 327.648 136.081C328.723 137.558 330.083 138.751 331.729 139.657C333.375 140.531 335.239 140.984 337.321 141.018C339.47 141.051 341.418 140.547 343.165 139.506C344.945 138.431 346.422 136.987 347.598 135.174L360.142 138.096C358.093 142.563 355.037 146.223 350.973 149.078C346.909 151.899 342.359 153.31 337.321 153.31ZM324.928 121.773H349.714C349.344 119.758 348.555 117.944 347.346 116.332C346.171 114.687 344.71 113.377 342.963 112.403C341.217 111.429 339.336 110.942 337.321 110.942C335.306 110.942 333.442 111.429 331.729 112.403C330.016 113.343 328.555 114.636 327.346 116.282C326.17 117.894 325.364 119.724 324.928 121.773ZM6.04537 228V157.471H31.2344C35.0632 157.471 38.5225 158.428 41.6123 160.342C44.7358 162.257 47.2043 164.826 49.0179 168.05C50.8315 171.274 51.7383 174.818 51.7383 178.68C51.7383 182.643 50.7979 186.237 48.9171 189.461C47.07 192.651 44.5846 195.204 41.4612 197.118C38.3377 198.999 34.9288 199.939 31.2344 199.939H18.3376V228H6.04537ZM18.3376 187.647H29.9246C31.671 187.647 33.2663 187.211 34.7105 186.337C36.1547 185.464 37.2966 184.289 38.1362 182.811C39.0095 181.333 39.4461 179.687 39.4461 177.874C39.4461 176.027 39.0095 174.364 38.1362 172.886C37.2966 171.409 36.1547 170.233 34.7105 169.36C33.2663 168.487 31.671 168.05 29.9246 168.05H18.3376V187.647ZM55.5922 228L55.5419 177.622H67.8341L67.8845 182.106C69.5974 180.292 71.6461 178.865 74.0306 177.823C76.4152 176.749 78.9845 176.211 81.7385 176.211C83.5857 176.211 85.4329 176.48 87.2801 177.017L82.4438 189.41C81.1675 188.907 79.8913 188.655 78.615 188.655C76.6335 188.655 74.8199 189.142 73.1742 190.116C71.5621 191.056 70.2691 192.349 69.2951 193.995C68.3547 195.607 67.8845 197.404 67.8845 199.385V228H55.5922ZM108.707 229.31C104.072 229.31 99.84 228.118 96.0112 225.733C92.2161 223.348 89.1766 220.158 86.8928 216.161C84.6426 212.131 83.5175 207.681 83.5175 202.811C83.5175 199.117 84.1724 195.674 85.4822 192.483C86.792 189.259 88.5889 186.438 90.8727 184.02C93.1901 181.568 95.8769 179.654 98.9332 178.277C101.989 176.9 105.247 176.211 108.707 176.211C113.341 176.211 117.556 177.404 121.351 179.788C125.18 182.173 128.22 185.38 130.47 189.41C132.754 193.441 133.896 197.907 133.896 202.811C133.896 206.472 133.241 209.897 131.931 213.088C130.621 216.279 128.807 219.1 126.49 221.552C124.206 223.97 121.536 225.867 118.48 227.244C115.457 228.621 112.199 229.31 108.707 229.31ZM108.707 217.018C111.158 217.018 113.358 216.363 115.306 215.053C117.254 213.743 118.782 212.013 119.89 209.864C121.032 207.714 121.603 205.363 121.603 202.811C121.603 200.191 121.016 197.807 119.84 195.657C118.698 193.474 117.136 191.745 115.155 190.468C113.207 189.158 111.057 188.504 108.707 188.504C106.288 188.504 104.105 189.158 102.157 190.468C100.209 191.778 98.6645 193.525 97.5226 195.708C96.3807 197.891 95.8097 200.258 95.8097 202.811C95.8097 205.464 96.3975 207.866 97.573 210.015C98.7484 212.164 100.31 213.877 102.258 215.154C104.24 216.396 106.389 217.018 108.707 217.018ZM178.309 177.622H190.602V228.957C190.602 232.584 189.863 235.876 188.385 238.831C186.907 241.82 184.892 244.373 182.34 246.489C179.787 248.638 176.865 250.284 173.574 251.426C170.282 252.601 166.823 253.189 163.196 253.189C159.669 253.189 156.277 252.467 153.02 251.023C149.762 249.579 146.873 247.597 144.355 245.078C141.869 242.593 139.972 239.755 138.662 236.564L149.896 231.476C150.568 233.323 151.575 234.935 152.919 236.312C154.296 237.723 155.874 238.815 157.654 239.587C159.434 240.393 161.282 240.796 163.196 240.796C165.144 240.796 167.008 240.527 168.788 239.99C170.602 239.453 172.23 238.663 173.675 237.622C175.119 236.615 176.244 235.372 177.05 233.894C177.89 232.45 178.309 230.804 178.309 228.957V221.854C176.731 224.071 174.749 225.867 172.365 227.244C169.98 228.621 167.226 229.31 164.103 229.31C160.476 229.31 157.083 228.621 153.926 227.244C150.769 225.867 147.982 223.97 145.564 221.552C143.179 219.1 141.298 216.279 139.921 213.088C138.578 209.897 137.906 206.472 137.906 202.811C137.906 199.15 138.578 195.724 139.921 192.534C141.298 189.343 143.179 186.539 145.564 184.121C147.982 181.669 150.769 179.755 153.926 178.378C157.083 177.001 160.476 176.312 164.103 176.312C167.226 176.312 169.98 177.001 172.365 178.378C174.749 179.721 176.731 181.501 178.309 183.718V177.622ZM164.254 217.471C166.84 217.471 169.124 216.816 171.105 215.506C173.12 214.163 174.699 212.383 175.841 210.166C176.983 207.916 177.554 205.464 177.554 202.811C177.554 200.124 176.966 197.672 175.79 195.456C174.649 193.239 173.07 191.459 171.055 190.116C169.073 188.772 166.806 188.101 164.254 188.101C161.735 188.101 159.434 188.772 157.352 190.116C155.27 191.425 153.607 193.189 152.365 195.405C151.122 197.622 150.501 200.091 150.501 202.811C150.501 205.531 151.122 208 152.365 210.217C153.607 212.433 155.27 214.196 157.352 215.506C159.434 216.816 161.735 217.471 164.254 217.471ZM195.718 228L195.668 177.622H207.96L208.01 182.106C209.723 180.292 211.772 178.865 214.157 177.823C216.541 176.749 219.11 176.211 221.864 176.211C223.712 176.211 225.559 176.48 227.406 177.017L222.57 189.41C221.293 188.907 220.017 188.655 218.741 188.655C216.759 188.655 214.946 189.142 213.3 190.116C211.688 191.056 210.395 192.349 209.421 193.995C208.481 195.607 208.01 197.404 208.01 199.385V228H195.718ZM264.651 177.622H276.943V228H264.651L264.097 221.753C262.72 224.003 260.89 225.834 258.606 227.244C256.356 228.621 253.686 229.31 250.596 229.31C246.868 229.31 243.375 228.605 240.117 227.194C236.859 225.783 233.988 223.835 231.502 221.35C229.051 218.865 227.119 215.993 225.709 212.735C224.332 209.478 223.643 205.985 223.643 202.257C223.643 198.663 224.298 195.288 225.608 192.131C226.952 188.974 228.816 186.203 231.2 183.818C233.585 181.434 236.339 179.57 239.462 178.226C242.586 176.883 245.944 176.211 249.538 176.211C252.863 176.211 255.835 176.95 258.455 178.428C261.108 179.906 263.358 181.786 265.205 184.07L264.651 177.622ZM250.293 217.471C252.913 217.471 255.23 216.816 257.246 215.506C259.261 214.196 260.839 212.433 261.981 210.217C263.123 207.966 263.694 205.498 263.694 202.811C263.694 200.091 263.123 197.622 261.981 195.405C260.839 193.155 259.244 191.375 257.195 190.065C255.18 188.755 252.879 188.101 250.293 188.101C247.707 188.101 245.34 188.772 243.19 190.116C241.074 191.425 239.378 193.189 238.102 195.405C236.859 197.622 236.238 200.091 236.238 202.811C236.238 205.531 236.876 208 238.152 210.217C239.429 212.433 241.125 214.196 243.24 215.506C245.39 216.816 247.741 217.471 250.293 217.471ZM281.944 228V177.622H294.236V182.106C295.949 180.292 297.998 178.865 300.383 177.823C302.767 176.749 305.336 176.211 308.09 176.211C311.583 176.211 314.791 177.034 317.713 178.68C320.668 180.326 323.019 182.525 324.766 185.279C326.546 182.525 328.897 180.326 331.819 178.68C334.74 177.034 337.948 176.211 341.441 176.211C345.135 176.211 348.477 177.118 351.466 178.932C354.489 180.712 356.89 183.113 358.67 186.136C360.484 189.125 361.391 192.467 361.391 196.161V228H349.098V199.436C349.098 197.488 348.611 195.708 347.637 194.096C346.697 192.45 345.421 191.14 343.809 190.166C342.23 189.158 340.45 188.655 338.468 188.655C336.487 188.655 334.69 189.142 333.078 190.116C331.5 191.056 330.223 192.332 329.249 193.944C328.275 195.556 327.788 197.387 327.788 199.436V228H315.496V199.436C315.496 197.387 315.026 195.556 314.085 193.944C313.145 192.332 311.869 191.056 310.257 190.116C308.645 189.142 306.848 188.655 304.866 188.655C302.918 188.655 301.138 189.158 299.526 190.166C297.914 191.14 296.621 192.45 295.647 194.096C294.707 195.708 294.236 197.488 294.236 199.436V228H281.944Z" fill="white"/>
</g>
</svg>
