<svg width="100" height="100" viewBox="0 0 100 100" fill="none" xmlns="http://www.w3.org/2000/svg">
<circle cx="50" cy="50" r="50" fill="#DB4259"/>
<path d="M58.0161 35.1626V32.6611L56.4395 32.5242C56.2794 31.8164 55.9997 31.153 55.6227 30.557L56.642 29.3439L54.8734 27.5753L53.6603 28.5946C53.0644 28.2176 52.4019 27.9379 51.6931 27.7778L51.5562 26.2012H49.0547L48.9178 27.7778C48.21 27.9379 47.5465 28.2176 46.9506 28.5946L45.7375 27.5744L43.9689 29.3429L44.9891 30.556C44.6121 31.152 44.3324 31.8145 44.1724 32.5233L42.5957 32.6602V35.1616L44.1724 35.2986C44.3324 36.0064 44.6121 36.6698 44.9891 37.2658L43.9689 38.4789L45.7375 40.2474L46.9506 39.2272C47.5465 39.6042 48.209 39.8839 48.9178 40.044L49.0547 41.6206H51.5562L51.6931 40.044C52.4009 39.8839 53.0644 39.6042 53.6603 39.2272L54.8734 40.2474L56.642 38.4789L55.6217 37.2658C55.9988 36.6698 56.2784 36.0073 56.4385 35.2986L58.0152 35.1616L58.0161 35.1626ZM50.6854 37.611C48.3373 37.8453 46.372 35.88 46.6063 33.5319C46.7799 31.7933 48.1849 30.3873 49.9236 30.2137C52.2727 29.9784 54.2389 31.9447 54.0036 34.2937C53.8291 36.0324 52.4231 37.4374 50.6854 37.611Z" fill="white" stroke="white" stroke-width="2" stroke-linecap="round" stroke-linejoin="round"/>
<path d="M49.6366 20C57.6231 20 63.222 25.9904 63.222 29.9441C63.222 31.784 62.9086 32.6847 62.9086 33.702C62.9086 34.7194 64.0831 36.9122 64.788 38.243C65.493 39.5738 65.7273 42.1967 64.005 42.1967H62.2827C61.7736 42.1967 61.6955 42.6663 61.6955 43.4494V47.4031C61.6955 49.0087 60.6386 51.2006 58.3676 51.0048C56.0966 50.809 55.5093 50.7309 54.844 50.5738C54.1786 50.4175 53.1998 50.809 53.1998 52.1793C53.1998 53.5496 53.709 55.9768 51.79 55.9768H41.4544C39.8883 55.9768 38.9877 55.1543 39.3792 53.3539C39.7707 51.5535 40.6318 47.7946 40.6318 45.7984C40.6318 43.8023 39.3011 40.7483 38.0089 38.0472C36.7167 35.3462 35.8951 28.7686 39.3011 24.6191C42.707 20.4696 46.7398 20 49.6366 20Z" stroke="white" stroke-width="2" stroke-linecap="round" stroke-linejoin="round"/>
<path d="M34.6055 62.8108L30.7046 65.1548C30.3155 65.3886 30.1895 65.8936 30.4234 66.2827L38.2404 79.2925C38.4742 79.6816 38.9792 79.8076 39.3684 79.5737L43.2693 77.2298C43.6584 76.996 43.7844 76.491 43.5505 76.1019L35.7335 63.0921C35.4997 62.7029 34.9947 62.577 34.6055 62.8108Z" stroke="white" stroke-width="2" stroke-linecap="round" stroke-linejoin="round"/>
<path d="M36.6641 64.5224L43.6218 60.3422C44.3436 59.9086 45.208 59.7791 46.0249 59.9832L57.554 62.8572C59.187 63.2646 60.2847 64.8559 59.9864 66.5123C59.8152 67.4616 59.2492 68.2243 58.4959 68.677C57.7997 69.0953 56.9434 69.2482 56.0928 69.0361L50.4237 67.6225" stroke="white" stroke-width="2" stroke-linecap="round" stroke-linejoin="round"/>
<path d="M59.7102 67.4867L67.3348 62.905C68.7528 62.053 70.6192 62.3755 71.5925 63.7131C72.7049 65.2416 72.2507 67.358 70.666 68.3102L58.132 75.8412C57.4102 76.2749 56.5458 76.4043 55.7289 76.2003L44.9354 73.5091L43.0977 74.6133" stroke="white" stroke-width="2" stroke-linecap="round" stroke-linejoin="round"/>
</svg>
