<svg width="100" height="100" viewBox="0 0 100 100" fill="none" xmlns="http://www.w3.org/2000/svg">
<circle cx="50" cy="50" r="50" fill="#DB4259"/>
<path d="M50.1679 41.6992C55.4696 41.6992 59.7675 37.4013 59.7675 32.0996C59.7675 26.7979 55.4696 22.5 50.1679 22.5C44.8662 22.5 40.5684 26.7979 40.5684 32.0996C40.5684 37.4013 44.8662 41.6992 50.1679 41.6992Z" stroke="white" stroke-width="2" stroke-linecap="round" stroke-linejoin="round"/>
<path d="M51.8577 28.2647C51.8577 28.2647 51.2664 27.6562 50.0159 27.6562C48.7654 27.6562 47.3287 28.5016 47.3459 29.9212C47.3671 31.7156 49.1779 31.9835 50.2193 32.1011C51.2672 32.2196 52.7546 32.659 52.7546 34.2476C52.7546 35.8363 51.5041 36.4954 50.2364 36.4954C48.9688 36.4954 48.1577 35.7521 48.1577 35.7521" stroke="white" stroke-width="2" stroke-linecap="round" stroke-linejoin="round"/>
<path d="M50.1016 25.9316V27.4182" stroke="white" stroke-width="2" stroke-linecap="round" stroke-linejoin="round"/>
<path d="M50.1016 36.9473V38.4346" stroke="white" stroke-width="2" stroke-linecap="round" stroke-linejoin="round"/>
<path d="M34.0498 45.0679L29.8458 43.5776C29.1651 43.3362 28.4177 43.6924 28.1763 44.3731L22.9364 59.1539C22.6951 59.8346 23.0513 60.582 23.732 60.8233L27.936 62.3137C28.6167 62.555 29.3641 62.1989 29.6054 61.5182L34.8454 46.7374C35.0867 46.0567 34.7305 45.3093 34.0498 45.0679Z" stroke="white" stroke-width="2" stroke-linecap="round" stroke-linejoin="round"/>
<path d="M72.0302 62.3023L76.2343 60.8119C76.915 60.5706 77.2712 59.8232 77.0299 59.1425L71.7899 44.3617C71.5486 43.681 70.8012 43.3248 70.1205 43.5662L65.9164 45.0565C65.2357 45.2978 64.8795 46.0453 65.1208 46.726L70.3608 61.5068C70.6021 62.1874 71.3495 62.5436 72.0302 62.3023Z" stroke="white" stroke-width="2" stroke-linecap="round" stroke-linejoin="round"/>
<path d="M35.2266 47.3719C35.2266 47.3719 38.381 48.5889 42.843 47.2363" stroke="white" stroke-width="2" stroke-linecap="round" stroke-linejoin="round"/>
<path d="M30.2715 61.1523L33.2454 62.5948" stroke="white" stroke-width="2" stroke-linecap="round" stroke-linejoin="round"/>
<path d="M51.4524 51.0982C51.2719 51.8643 51.2719 52.3601 50.5964 53.0364C49.9201 53.7127 49.8303 53.7576 48.2531 55.2C46.6759 56.6424 44.1521 56.7323 42.8901 55.4704C41.6282 54.2084 42.3944 53.0821 42.9351 52.4058C43.4758 51.7295 48.8387 45.8708 48.8387 45.8708L55.9145 45.4199C55.9145 45.4199 59.7002 47.2675 60.9621 47.8988C62.2241 48.5294 63.9368 48.4395 65.0182 48.3048" stroke="white" stroke-width="2" stroke-linecap="round" stroke-linejoin="round"/>
<path d="M44.076 65.645C45.0083 64.8138 45.0903 63.3841 44.259 62.4518C43.4278 61.5195 41.9981 61.4375 41.0658 62.2688L37.2415 65.6785C36.3092 66.5098 36.2272 67.9394 37.0585 68.8717C37.8897 69.8041 39.3194 69.886 40.2517 69.0547L44.076 65.645Z" stroke="white" stroke-width="2" stroke-linecap="round" stroke-linejoin="round"/>
<path d="M39.9784 63.1606C40.9107 62.3294 40.9926 60.8997 40.1614 59.9674C39.3301 59.0351 37.9005 58.9532 36.9681 59.7844L34.2778 62.1831C33.3454 63.0144 33.2635 64.444 34.0948 65.3764C34.926 66.3087 36.3557 66.3906 37.288 65.5594L39.9784 63.1606Z" stroke="white" stroke-width="2" stroke-linecap="round" stroke-linejoin="round"/>
<path d="M46.8748 69.27C47.8072 68.4388 47.8891 67.0091 47.0578 66.0768C46.2266 65.1445 44.7969 65.0625 43.8646 65.8938L40.1153 69.2367C39.183 70.0679 39.101 71.4976 39.9323 72.4299C40.7635 73.3622 42.1932 73.4441 43.1255 72.6129L46.8748 69.27Z" stroke="white" stroke-width="2" stroke-linecap="round" stroke-linejoin="round"/>
<path d="M48.3846 73.977C49.3169 73.1458 49.3989 71.7161 48.5676 70.7838C47.7364 69.8515 46.3067 69.7696 45.3744 70.6008L43.1077 72.6218C42.1754 73.453 42.0935 74.8827 42.9247 75.815C43.756 76.7473 45.1856 76.8292 46.1179 75.998L48.3846 73.977Z" stroke="white" stroke-width="2" stroke-linecap="round" stroke-linejoin="round"/>
<path d="M55.4258 67.2302L58.4969 69.7981C59.4288 70.6296 60.859 70.5471 61.6896 69.6152C62.5211 68.6832 62.4386 67.2531 61.5067 66.4224L59.0694 64.4883" stroke="white" stroke-width="2" stroke-linecap="round" stroke-linejoin="round"/>
<path d="M59.1103 64.3131L62.1381 66.8868C63.0701 67.7183 64.5003 67.6358 65.3309 66.7038C66.1624 65.7719 66.0799 64.3417 65.148 63.5111L54.7773 53.5938" stroke="white" stroke-width="2" stroke-linecap="round" stroke-linejoin="round"/>
<path d="M51.9141 70.1108L54.9386 72.7138C55.8705 73.5453 57.3007 73.4628 58.1314 72.5309C58.9628 71.5989 58.8803 70.1688 57.9484 69.3381L55.6369 67.4473" stroke="white" stroke-width="2" stroke-linecap="round" stroke-linejoin="round"/>
<path d="M49.4941 73.9156L51.3825 75.599C52.3455 76.4574 53.8222 76.3724 54.6807 75.4095C55.4844 74.5077 55.4052 73.1258 54.5034 72.322L52.615 70.6387" stroke="white" stroke-width="2" stroke-linecap="round" stroke-linejoin="round"/>
<path d="M65.9629 64.6215L70.019 62.0078" stroke="white" stroke-width="2" stroke-linecap="round" stroke-linejoin="round"/>
</svg>
