<svg width="12" height="36" viewBox="0 0 12 36" fill="none" xmlns="http://www.w3.org/2000/svg">
<g style="mix-blend-mode:plus-lighter">
<path d="M0.835 3.705C0.835 2.31 1.405 1.32 1.915 0.735C1.975 0.675 2.065 0.675 2.125 0.735L2.785 1.35C2.845 1.41 2.845 1.5 2.785 1.56C2.32 2.1 1.96 2.91 1.96 3.78C1.96 4.83 2.41 5.355 3.055 5.355C3.625 5.355 3.94 5.085 4.06 3.96L4.135 3.195C4.285 1.785 4.99 1.05 6.16 1.05C7.525 1.05 8.35 2.025 8.35 3.72C8.35 4.77 8.005 5.67 7.555 6.27C7.51 6.345 7.42 6.345 7.345 6.3L6.7 5.79C6.625 5.73 6.625 5.655 6.67 5.58C6.97 5.115 7.255 4.38 7.255 3.645C7.255 2.745 6.85 2.28 6.265 2.28C5.695 2.28 5.395 2.625 5.29 3.69L5.215 4.44C5.08 5.895 4.345 6.6 3.19 6.6C1.78 6.6 0.835 5.58 0.835 3.705ZM4.6 8.14852C5.395 8.14852 5.98 8.23852 6.415 8.37352C7.66 8.77852 8.35 9.82852 8.35 11.2085C8.35 12.3035 7.885 13.1435 7.135 13.6685C7.06 13.7135 7 13.7135 6.925 13.6235L6.385 12.9635C6.325 12.8885 6.325 12.8135 6.4 12.7535C6.925 12.3335 7.18 11.9285 7.18 11.2085C7.18 10.4285 6.805 9.84352 6.055 9.60352C5.68 9.48352 5.23 9.43852 4.6 9.43852C3.955 9.43852 3.505 9.48352 3.13 9.60352C2.38 9.84352 2.005 10.4285 2.005 11.2085C2.005 11.9285 2.26 12.3335 2.785 12.7535C2.86 12.8135 2.86 12.8885 2.8 12.9635L2.26 13.6235C2.185 13.7135 2.125 13.7135 2.05 13.6685C1.3 13.1435 0.834999 12.3035 0.834999 11.2085C0.835 9.82852 1.525 8.77852 2.77 8.37352C3.205 8.23852 3.79 8.14852 4.6 8.14852ZM0.999999 16.7687L0.999999 15.8087C0.999999 15.7187 1.06 15.6587 1.15 15.6587L8.035 15.6587C8.125 15.6587 8.185 15.7187 8.185 15.8087L8.185 16.7687C8.185 16.8587 8.125 16.9187 8.035 16.9187L7.3 16.9187L7.3 16.9337C7.915 17.2487 8.35 17.8787 8.35 18.8387C8.35 19.4087 8.14 19.9487 7.81 20.3087C7.735 20.3837 7.675 20.3987 7.6 20.3387L6.865 19.7837C6.79 19.7237 6.775 19.6487 6.835 19.5737C7.045 19.2437 7.18 18.8837 7.18 18.4637C7.18 17.3687 6.325 16.9187 5.08 16.9187L1.15 16.9187C1.06 16.9187 0.999999 16.8587 0.999999 16.7687ZM0.834999 24.1874C0.834999 22.7924 1.555 21.7424 2.77 21.3524C3.265 21.1874 3.76 21.1124 4.6 21.1124C5.425 21.1124 5.92 21.1874 6.415 21.3524C7.645 21.7424 8.35 22.7924 8.35 24.1874C8.35 25.5824 7.645 26.6324 6.415 27.0224C5.92 27.1874 5.425 27.2624 4.6 27.2624C3.76 27.2624 3.265 27.1874 2.77 27.0224C1.555 26.6324 0.834999 25.5824 0.834999 24.1874ZM2.005 24.1874C2.005 24.9824 2.41 25.5674 3.13 25.8074C3.52 25.9274 3.91 25.9724 4.6 25.9724C5.29 25.9724 5.665 25.9274 6.055 25.8074C6.775 25.5674 7.18 24.9824 7.18 24.1874C7.18 23.3924 6.775 22.8074 6.055 22.5674C5.665 22.4474 5.29 22.4024 4.6 22.4024C3.91 22.4024 3.52 22.4474 3.13 22.5674C2.41 22.8074 2.005 23.3924 2.005 24.1874ZM0.924999 31.5168L0.924999 31.0068C0.924999 29.7468 1.525 29.2518 2.815 29.2518L11.05 29.2518C11.14 29.2518 11.2 29.3118 11.2 29.4018L11.2 30.3618C11.2 30.4518 11.14 30.5118 11.05 30.5118L2.89 30.5118C2.29 30.5118 2.095 30.7368 2.095 31.2318L2.095 31.5168C2.095 31.6068 2.035 31.6668 1.945 31.6668L1.075 31.6668C0.984999 31.6668 0.924999 31.6068 0.924999 31.5168ZM0.924998 35.6476L0.924998 35.1376C0.924999 33.8776 1.525 33.3826 2.815 33.3826L11.05 33.3826C11.14 33.3826 11.2 33.4426 11.2 33.5326L11.2 34.4926C11.2 34.5826 11.14 34.6426 11.05 34.6426L2.89 34.6426C2.29 34.6426 2.095 34.8676 2.095 35.3626L2.095 35.6476C2.095 35.7376 2.035 35.7976 1.945 35.7976L1.075 35.7976C0.984998 35.7976 0.924998 35.7376 0.924998 35.6476Z" fill="white"/>
</g>
</svg>
