<svg width="318" height="39" viewBox="0 0 318 39" fill="none" xmlns="http://www.w3.org/2000/svg">
<g filter="url(#filter0_d_241_3779)">
<path d="M25.8207 12.974C25.6227 13.26 25.1607 14.03 24.9187 14.58C24.1927 16.208 23.0267 18.408 21.5967 20.388C23.7307 22.236 26.3707 25.03 27.5807 26.526L24.5227 29.188C23.1147 27.186 21.2447 25.074 19.2647 23.16C16.9547 25.558 14.0727 27.78 11.1907 29.166L8.41869 26.284C11.9827 24.986 15.4587 22.28 17.4167 20.102C18.8467 18.474 20.0347 16.538 20.4967 15.13H13.6547C12.6647 15.13 11.4547 15.262 10.8387 15.306V11.522C11.6087 11.632 13.0167 11.698 13.6547 11.698H21.0027C22.1027 11.698 23.1367 11.544 23.6427 11.368L25.8207 12.974ZM42.1234 10.488C41.6394 11.17 41.1334 12.028 40.8034 12.6H44.4554C45.1814 12.6 46.0614 12.49 46.6334 12.314L49.3174 13.986C49.0314 14.47 48.7014 15.13 48.4594 15.79C47.8874 17.418 46.8314 19.662 45.3134 21.818C46.2594 22.5 47.1174 23.138 47.7334 23.622L45.1814 26.658C44.6094 26.13 43.8174 25.448 42.9154 24.722C41.0234 26.68 38.6034 28.462 35.3474 29.716L32.2454 27.032C36.0294 25.844 38.3394 24.194 40.0334 22.522C38.7134 21.554 37.4154 20.652 36.4254 20.014L38.8014 17.572C39.8134 18.166 41.0894 18.958 42.3654 19.794C43.3334 18.386 44.1694 16.758 44.4554 15.614H38.8014C37.1954 17.704 35.0834 19.816 33.0154 21.246L30.1334 19.024C34.0274 16.626 35.9414 13.766 37.1074 11.918C37.5034 11.302 38.0314 10.158 38.2734 9.3L42.1234 10.488ZM52.5686 17.44C53.4486 17.506 55.2966 17.594 56.3746 17.594H68.0566C69.0466 17.594 70.1246 17.484 70.7626 17.44V21.642C70.1906 21.62 68.9586 21.51 68.0566 21.51H56.3746C55.1206 21.51 53.4706 21.576 52.5686 21.642V17.44ZM77.6271 25.8V13.238C77.6271 12.358 77.5391 11.214 77.3631 10.378H81.5211C81.4331 11.214 81.3011 12.182 81.3011 13.238V16.252C84.2711 17.11 88.5391 18.672 90.3871 19.574L88.8691 23.292C86.6471 22.148 83.6331 20.982 81.3011 20.146V25.8C81.3011 26.394 81.4331 28.132 81.5431 29.122H77.3631C77.5171 28.176 77.6271 26.702 77.6271 25.8ZM113.425 13.106C113.161 13.436 112.655 14.074 112.435 14.426C111.313 16.274 109.223 19.024 107.243 20.454L104.493 18.254C106.121 17.22 107.639 15.548 108.123 14.624H97.2545C96.2865 14.624 95.6045 14.69 94.4605 14.8V11.126C95.3625 11.258 96.2865 11.368 97.2545 11.368H108.673C109.399 11.368 110.851 11.28 111.313 11.148L113.425 13.106ZM104.361 16.098C104.361 21.268 104.471 26.02 98.2665 29.474L95.1645 26.944C95.9345 26.68 96.7485 26.306 97.6725 25.602C100.115 23.754 100.665 21.884 100.665 18.298C100.665 17.528 100.621 16.89 100.489 16.098H104.361ZM123.917 14.712C124.357 15.68 125.435 18.54 125.765 19.574L122.575 20.674C122.267 19.574 121.343 16.978 120.749 15.746L123.917 14.712ZM132.123 16.516C131.815 17.374 131.661 17.902 131.507 18.43C130.935 20.542 130.011 22.786 128.559 24.678C126.513 27.362 123.741 29.276 121.101 30.288L118.307 27.428C120.639 26.834 123.851 25.162 125.677 22.852C127.129 21.026 128.163 18.034 128.361 15.306L132.123 16.516ZM118.813 15.9C119.429 17.132 120.441 19.684 120.881 20.96L117.625 22.17C117.251 20.982 116.195 18.1 115.601 17.044L118.813 15.9ZM151.182 11.676C151.182 12.314 151.71 12.842 152.348 12.842C152.986 12.842 153.514 12.314 153.514 11.676C153.514 11.038 152.986 10.51 152.348 10.51C151.71 10.51 151.182 11.038 151.182 11.676ZM149.62 11.676C149.62 10.18 150.852 8.948 152.348 8.948C153.844 8.948 155.076 10.18 155.076 11.676C155.076 13.172 153.844 14.404 152.414 14.404C152.304 14.734 152.216 15.064 152.15 15.328C151.622 17.396 150.72 20.74 148.828 23.292C146.848 25.954 143.746 28.22 139.874 29.474L136.97 26.284C141.392 25.294 143.878 23.358 145.616 21.202C147.024 19.464 147.75 17.286 148.036 15.526H138.356C137.278 15.526 136.068 15.592 135.496 15.636V11.874C136.178 11.962 137.63 12.072 138.356 12.072H148.058C148.432 12.072 149.048 12.05 149.642 11.962C149.62 11.874 149.62 11.786 149.62 11.676ZM169.95 20.212H163.46C164.252 21.554 165.308 22.698 166.65 23.644C167.992 22.742 169.114 21.598 169.95 20.212ZM172.304 16.978L174.57 18.254C173.514 21.224 171.842 23.534 169.708 25.316C171.776 26.152 174.24 26.702 177.122 26.988C176.418 27.736 175.516 29.21 175.076 30.134C171.6 29.65 168.762 28.77 166.452 27.428C163.922 28.748 160.996 29.584 157.828 30.09C157.542 29.232 156.706 27.714 156.09 26.988C158.862 26.658 161.37 26.13 163.548 25.272C162.294 24.084 161.216 22.654 160.292 21.004L162.624 20.212H158.158V17.088H164.846V14.998H157.036V11.83H164.846V9.19H168.19V11.83H176.066V14.998H168.19V17.088H171.754L172.304 16.978ZM186.032 19.112L186.428 21.972C185.768 22.148 185.108 22.346 184.448 22.522V26.812C184.448 28.198 184.228 29.012 183.48 29.496C182.732 30.002 181.72 30.112 180.268 30.112C180.202 29.32 179.85 28 179.476 27.142C180.18 27.186 180.906 27.186 181.17 27.164C181.434 27.164 181.522 27.098 181.522 26.812V23.314L179.564 23.842L179.124 20.74C179.806 20.608 180.642 20.432 181.522 20.212V16.142H179.454V13.216H181.522V9.212H184.448V13.216H186.208V16.142H184.448V19.508L186.032 19.112ZM189.288 27.648C190.19 27.45 191.004 27.186 191.752 26.856C191.334 26.482 190.96 26.064 190.586 25.624C190.234 26.328 189.816 27.01 189.288 27.648ZM195.316 23.688H192.324C192.808 24.304 193.38 24.832 194.084 25.316C194.568 24.854 194.986 24.304 195.316 23.688ZM191.202 12.776L193.446 12.38C192.258 12.468 191.07 12.534 189.882 12.578C190.19 13.326 190.564 14.316 190.762 14.932L189.706 15.262H191.576C191.532 14.58 191.356 13.546 191.202 12.776ZM192.544 15.262H194.634C195.14 14.36 195.712 13.128 196.064 12.116C195.272 12.204 194.48 12.292 193.666 12.358C193.886 13.172 194.128 14.25 194.216 14.91L192.544 15.262ZM197.12 21.356L198.836 22.016C198.352 23.908 197.582 25.404 196.57 26.57C197.714 27.01 199.012 27.318 200.42 27.516C199.782 28.132 198.968 29.32 198.572 30.112C196.922 29.782 195.47 29.276 194.194 28.594C193.072 29.276 191.774 29.782 190.366 30.134C190.102 29.584 189.464 28.638 188.936 28.066C188.298 28.77 187.55 29.43 186.648 30.024C186.23 29.276 185.372 28.264 184.624 27.714C187.44 26.02 188.518 23.512 189.002 20.894H186.538V18.342H189.31L189.354 17.726H186.956V15.262H188.122C187.946 14.624 187.66 13.766 187.44 13.128L189.376 12.6C188.628 12.622 187.88 12.644 187.154 12.644C187.088 11.962 186.758 10.928 186.472 10.29C190.388 10.18 194.81 9.85 197.648 9.278L199.408 11.61C198.616 11.764 197.758 11.896 196.856 12.028L199.078 12.644C198.506 13.546 197.912 14.47 197.384 15.262H199.144V17.726H192.412L192.368 18.342H199.826V20.894H192.06L191.95 21.422H196.614L197.12 21.356ZM218.828 11.676C218.828 12.314 219.356 12.842 219.994 12.842C220.632 12.842 221.16 12.314 221.16 11.676C221.16 11.038 220.632 10.51 219.994 10.51C219.356 10.51 218.828 11.038 218.828 11.676ZM217.266 11.676C217.266 10.18 218.498 8.948 219.994 8.948C221.49 8.948 222.722 10.18 222.722 11.676C222.722 13.172 221.49 14.404 220.06 14.404C219.95 14.734 219.862 15.064 219.796 15.328C219.268 17.396 218.366 20.74 216.474 23.292C214.494 25.954 211.392 28.22 207.52 29.474L204.616 26.284C209.038 25.294 211.524 23.358 213.262 21.202C214.67 19.464 215.396 17.286 215.682 15.526H206.002C204.924 15.526 203.714 15.592 203.142 15.636V11.874C203.824 11.962 205.276 12.072 206.002 12.072H215.704C216.078 12.072 216.694 12.05 217.288 11.962C217.266 11.874 217.266 11.786 217.266 11.676ZM225.911 12.094C226.813 12.116 227.803 12.138 228.441 12.138H240.717C241.311 12.138 242.147 12.138 243.027 12.116C242.983 12.842 242.983 13.744 242.983 14.492V25.228C242.983 26.174 243.027 28.506 243.027 28.506H239.331C239.331 28.506 239.353 28 239.375 27.34H229.563V28.506H225.889C225.889 28.506 225.955 26.394 225.955 25.184V14.492C225.955 13.788 225.955 12.776 225.911 12.094ZM229.541 15.548V23.93H239.397V15.548H229.541ZM263.988 9.74C264.538 10.554 265.308 11.984 265.704 12.754L264.01 13.458L266.254 14.844C265.968 15.328 265.616 15.988 265.396 16.648C264.802 18.474 263.614 21.378 261.59 23.864C259.456 26.482 256.794 28.506 252.658 30.2L249.49 27.384C254.242 25.932 256.53 24.062 258.4 21.972C259.786 20.432 261.018 17.902 261.304 16.472H255.826C254.264 18.43 252.306 20.322 250.282 21.73L247.29 19.508C251.184 17.11 252.966 14.47 254.132 12.622C254.528 12.006 255.056 10.862 255.298 10.004L259.192 11.28C258.686 11.984 258.158 12.886 257.828 13.458H261.37C262.03 13.458 262.822 13.37 263.394 13.216C262.976 12.358 262.426 11.302 261.92 10.576L263.988 9.74ZM266.694 8.684C267.266 9.52 268.058 10.928 268.432 11.676L266.364 12.556C265.924 11.654 265.22 10.356 264.626 9.52L266.694 8.684ZM272.186 10.84C272.802 10.928 273.88 10.972 274.65 10.972H282.988C283.692 10.972 284.946 10.928 285.584 10.84V14.272C284.968 14.228 283.78 14.184 282.944 14.184H274.65C273.902 14.184 272.846 14.206 272.186 14.272V10.84ZM287.586 17.572C287.41 17.902 287.19 18.364 287.102 18.628C286.376 20.74 285.452 22.808 283.824 24.634C281.646 27.076 278.786 28.682 275.97 29.496L273.308 26.482C276.74 25.756 279.292 24.304 280.876 22.72C281.954 21.642 282.548 20.542 282.922 19.53H272.912C272.362 19.53 271.108 19.552 270.118 19.64V16.208C271.13 16.296 272.164 16.362 272.912 16.362H283.384C284.22 16.362 284.88 16.252 285.232 16.098L287.586 17.572ZM300.732 11.302C300.402 12.028 300.05 12.974 299.698 13.986C298.95 16.164 297.344 21.18 296.288 24.106C298.642 23.886 301.26 23.578 303.284 23.336C302.58 21.862 301.854 20.52 301.194 19.618L304.538 18.254C306.122 20.696 308.278 24.964 309.334 27.516L305.726 29.122C305.462 28.396 305.132 27.56 304.758 26.68C301.128 27.12 294.814 27.758 292.152 28.044C291.602 28.11 290.678 28.242 289.952 28.33L289.336 24.436C290.128 24.436 291.206 24.436 291.954 24.414C292.064 24.414 292.174 24.414 292.284 24.392C293.56 21.092 295.276 15.57 295.936 13.216C296.266 12.05 296.398 11.258 296.508 10.444L300.732 11.302Z" fill="white"/>
</g>
<defs>
<filter id="filter0_d_241_3779" x="0.417969" y="0.683594" width="316.916" height="37.6045" filterUnits="userSpaceOnUse" color-interpolation-filters="sRGB">
<feFlood flood-opacity="0" result="BackgroundImageFix"/>
<feColorMatrix in="SourceAlpha" type="matrix" values="0 0 0 0 0 0 0 0 0 0 0 0 0 0 0 0 0 0 127 0" result="hardAlpha"/>
<feOffset/>
<feGaussianBlur stdDeviation="4"/>
<feComposite in2="hardAlpha" operator="out"/>
<feColorMatrix type="matrix" values="0 0 0 0 0 0 0 0 0 0.330329 0 0 0 0 0.569533 0 0 0 1 0"/>
<feBlend mode="normal" in2="BackgroundImageFix" result="effect1_dropShadow_241_3779"/>
<feBlend mode="normal" in="SourceGraphic" in2="effect1_dropShadow_241_3779" result="shape"/>
</filter>
</defs>
</svg>
