<svg width="104" height="14" viewBox="0 0 104 14" fill="none" xmlns="http://www.w3.org/2000/svg">
<path d="M5.56499 13H4.50299C4.39499 13 4.32299 12.928 4.28699 12.82L0.326991 0.975999C0.272991 0.831999 0.344991 0.76 0.452991 0.76H1.67699C1.82099 0.76 1.89299 0.813999 1.92899 0.94L5.06099 10.39H5.09699L8.12099 0.94C8.15699 0.813999 8.22899 0.76 8.35499 0.76H9.59699C9.70499 0.76 9.77699 0.831999 9.72299 0.975999L5.78099 12.82C5.74499 12.928 5.67299 13 5.56499 13ZM13.3864 12.82V0.94C13.3864 0.831999 13.4584 0.76 13.5664 0.76H14.8084C14.9164 0.76 14.9884 0.831999 14.9884 0.94V12.82C14.9884 12.928 14.9164 13 14.8084 13H13.5664C13.4584 13 13.3864 12.928 13.3864 12.82ZM19.8095 12.82V0.94C19.8095 0.831999 19.8815 0.76 19.9895 0.76H27.3515C27.4595 0.76 27.5315 0.831999 27.5315 0.94V2.074C27.5315 2.182 27.4595 2.254 27.3515 2.254H21.5195C21.4475 2.254 21.4115 2.29 21.4115 2.362V5.962C21.4115 6.034 21.4475 6.07 21.5195 6.07H26.4695C26.5775 6.07 26.6495 6.142 26.6495 6.25V7.384C26.6495 7.492 26.5775 7.564 26.4695 7.564H21.5195C21.4475 7.564 21.4115 7.6 21.4115 7.672V11.398C21.4115 11.47 21.4475 11.506 21.5195 11.506H27.3515C27.4595 11.506 27.5315 11.578 27.5315 11.686V12.82C27.5315 12.928 27.4595 13 27.3515 13H19.9895C19.8815 13 19.8095 12.928 19.8095 12.82ZM41.454 13H40.464C40.356 13 40.302 12.928 40.266 12.82L37.656 3.694H37.62L35.028 12.82C34.992 12.928 34.92 13 34.812 13H33.822C33.714 13 33.642 12.928 33.624 12.82L30.672 0.94C30.636 0.831999 30.69 0.76 30.816 0.76H32.004C32.13 0.76 32.202 0.813999 32.22 0.94L34.398 10.03H34.434L36.972 0.94C37.008 0.831999 37.08 0.76 37.188 0.76H38.106C38.232 0.76 38.286 0.831999 38.322 0.94L40.914 10.03H40.95L43.074 0.94C43.11 0.813999 43.182 0.76 43.308 0.76H44.478C44.604 0.76 44.64 0.831999 44.622 0.94L41.67 12.82C41.652 12.928 41.562 13 41.454 13ZM54.1606 12.82V0.94C54.1606 0.831999 54.2326 0.76 54.3406 0.76H55.5106C55.6546 0.76 55.7446 0.813999 55.7986 0.94L59.4526 9.184H59.5066L63.0886 0.94C63.1426 0.813999 63.2326 0.76 63.3766 0.76H64.5466C64.6546 0.76 64.7266 0.831999 64.7266 0.94V12.82C64.7266 12.928 64.6546 13 64.5466 13H63.4126C63.3046 13 63.2326 12.928 63.2326 12.82V4.306H63.1786L60.1366 11.038C60.0646 11.2 59.9746 11.254 59.8126 11.254H59.0926C58.9126 11.254 58.8226 11.2 58.7506 11.038L55.7086 4.306H55.6546V12.82C55.6546 12.928 55.5826 13 55.4746 13H54.3406C54.2326 13 54.1606 12.928 54.1606 12.82ZM73.5985 13.198C71.5465 13.198 70.0705 12.226 69.4405 10.336C69.2065 9.634 69.1165 8.896 69.1165 6.88C69.1165 4.864 69.2065 4.126 69.4405 3.424C70.0705 1.534 71.5465 0.561999 73.5985 0.561999C75.6685 0.561999 77.1445 1.534 77.7745 3.424C78.0085 4.126 78.0985 4.864 78.0985 6.88C78.0985 8.896 78.0085 9.634 77.7745 10.336C77.1445 12.226 75.6685 13.198 73.5985 13.198ZM73.5985 11.704C74.9665 11.704 75.8305 11.056 76.2085 9.886C76.3525 9.436 76.4785 8.644 76.4785 6.88C76.4785 5.116 76.3525 4.324 76.2085 3.874C75.8305 2.704 74.9665 2.056 73.5985 2.056C72.2485 2.056 71.3845 2.704 71.0065 3.874C70.8625 4.324 70.7365 5.116 70.7365 6.88C70.7365 8.644 70.8625 9.436 71.0065 9.886C71.3845 11.056 72.2485 11.704 73.5985 11.704ZM91.025 13H89.585C89.459 13 89.405 12.946 89.351 12.82L86.903 7.816H84.203C84.131 7.816 84.095 7.852 84.095 7.924V12.82C84.095 12.928 84.023 13 83.915 13H82.673C82.565 13 82.493 12.928 82.493 12.82V0.94C82.493 0.831999 82.565 0.76 82.673 0.76H87.101C89.387 0.76 90.935 2.164 90.935 4.288C90.935 5.944 89.999 7.15 88.523 7.618L91.133 12.784C91.205 12.892 91.151 13 91.025 13ZM87.065 6.322C88.487 6.322 89.333 5.566 89.333 4.288C89.333 3.01 88.487 2.254 87.065 2.254H84.203C84.131 2.254 84.095 2.29 84.095 2.362V6.214C84.095 6.286 84.131 6.322 84.203 6.322H87.065ZM95.4024 12.82V0.94C95.4024 0.831999 95.4744 0.76 95.5824 0.76H102.944C103.052 0.76 103.124 0.831999 103.124 0.94V2.074C103.124 2.182 103.052 2.254 102.944 2.254H97.1124C97.0404 2.254 97.0044 2.29 97.0044 2.362V5.962C97.0044 6.034 97.0404 6.07 97.1124 6.07H102.062C102.17 6.07 102.242 6.142 102.242 6.25V7.384C102.242 7.492 102.17 7.564 102.062 7.564H97.1124C97.0404 7.564 97.0044 7.6 97.0044 7.672V11.398C97.0044 11.47 97.0404 11.506 97.1124 11.506H102.944C103.052 11.506 103.124 11.578 103.124 11.686V12.82C103.124 12.928 103.052 13 102.944 13H95.5824C95.4744 13 95.4024 12.928 95.4024 12.82Z" fill="white"/>
</svg>
