<?xml version="1.0" encoding="UTF-8"?><svg xmlns="http://www.w3.org/2000/svg" viewBox="0 0 153.98 32.39"><defs><style>.d{font-family:Poppins-Bold, Poppins;font-size:12.12px;}</style></defs><g id="a"/><g id="b"><g id="c"><g><path d="M27.71,14.07C27.71,6.42,21.51,.21,13.85,.21S0,6.42,0,14.07s6.2,13.85,13.85,13.85c3.12,0,6-1.03,8.31-2.77v2.77h5.54V14.07h0Zm-13.85,8.31c-4.59,0-8.31-3.72-8.31-8.31S9.26,5.76,13.85,5.76s8.31,3.72,8.31,8.31-3.72,8.31-8.31,8.31Zm38.4,5.55l-6.64-9.01-6.62,9.01h-7.21L52.2,.24h7.15l-10.17,13.84h.03l10.27,13.85h-7.23ZM35.1,4.7L31.78,.24h7.17l3.36,4.45h-7.21Z"/><text class="d" transform="translate(69.12 10.33)"><tspan x="0" y="0">Developper’s </tspan><tspan x="0" y="14.71">Blog</tspan></text></g></g></g></svg>