<?xml version="1.0" encoding="UTF-8"?><svg xmlns="http://www.w3.org/2000/svg" viewBox="0 0 223.17 60"><defs><style>.e{fill:#ec3055;}</style></defs><g id="a"/><g id="b"><g id="c"><g><g><path class="e" d="M6.17,26.24c1.3,0,2.5-.4,3.49-1.09v.72c0,.21,.17,.37,.37,.37h2.06c.21,0,.37-.17,.37-.37V14.53c0-.21-.17-.37-.37-.37h-2.06c-.21,0-.37,.17-.37,.37v.45c-1.16-.8-2.6-1.21-4.14-1.05C2.67,14.22,.35,16.52,.04,19.37c-.41,3.71,2.5,6.87,6.13,6.87Zm0-9.53c1.85,0,3.36,1.51,3.36,3.36s-1.51,3.36-3.36,3.36-3.36-1.51-3.36-3.36,1.51-3.36,3.36-3.36Z"/><rect class="e" x="21.2" y="13.9" width="4.2" height="12.35" rx=".37" ry=".37"/><rect class="e" x="47.05" y="13.9" width="4.2" height="12.35" rx=".37" ry=".37"/><rect class="e" x="34.13" width="4.2" height="26.43" rx=".37" ry=".37"/><path class="e" d="M72.08,14.16h-2.06c-.21,0-.37,.17-.37,.37v.45c-1.16-.8-2.6-1.21-4.14-1.05-2.85,.29-5.17,2.59-5.48,5.44-.41,3.71,2.5,6.87,6.13,6.87,1.3,0,2.5-.4,3.49-1.09v.72c0,.21,.17,.37,.37,.37h2.06c.21,0,.37-.17,.37-.37V14.53c0-.21-.17-.37-.37-.37Zm-5.92,9.27c-1.85,0-3.36-1.51-3.36-3.36s1.51-3.36,3.36-3.36,3.36,1.51,3.36,3.36-1.51,3.36-3.36,3.36Z"/><path class="e" d="M70.6,33.35H1.85C.83,33.35,0,34.18,0,35.21v22.94C0,59.17,.83,60,1.85,60H70.6c1.02,0,1.85-.83,1.85-1.85v-22.94c0-1.02-.83-1.85-1.85-1.85ZM26.85,51.76c-.72,.7-1.61,1.05-2.67,1.05-1.01,0-1.84-.3-2.5-.89-.65-.6-1.05-1.44-1.21-2.52l1.77-.39c.08,.68,.22,1.15,.42,1.41,.36,.5,.89,.75,1.58,.75,.55,0,1-.18,1.36-.55s.54-.83,.54-1.39c0-.23-.03-.43-.09-.62-.06-.19-.16-.36-.29-.52-.13-.16-.3-.31-.51-.44s-.46-.27-.75-.39l-1.12-.47c-1.59-.67-2.38-1.65-2.38-2.95,0-.87,.33-1.6,1-2.19,.67-.59,1.5-.89,2.49-.89,1.34,0,2.38,.65,3.14,1.95l-1.42,.84c-.27-.46-.52-.76-.76-.9-.25-.16-.57-.24-.97-.24-.49,0-.89,.14-1.21,.41-.32,.27-.48,.61-.48,1.02,0,.57,.42,1.02,1.26,1.37l1.16,.47c.94,.38,1.63,.85,2.07,1.39,.44,.55,.65,1.22,.65,2.02,0,1.07-.36,1.95-1.07,2.65Zm11.21-.63c-.63,.55-1.28,.93-1.97,1.15-.64,.22-1.55,.32-2.73,.32h-2.41v-11.61h2.44c1.17,0,2.09,.12,2.77,.35,.73,.23,1.39,.61,1.98,1.15,1.2,1.09,1.8,2.53,1.8,4.31s-.62,3.23-1.87,4.33Zm11.29,1.47l-4.18-5.16-.36,.36v4.8h-1.75v-11.61h1.75v4.63l4.52-4.63h2.34l-5.25,5.25,5.28,6.35h-2.35Z"/><path class="e" d="M33.49,42.64h-.79v8.31h.79c.79,0,1.44-.08,1.96-.25,.52-.18,.99-.45,1.41-.83,.86-.79,1.29-1.81,1.29-3.07s-.43-2.31-1.28-3.1c-.77-.71-1.9-1.06-3.39-1.06Z"/></g><path class="e" d="M223.17,49.02V1.38h-78.71V49.02h36.2v8.56h-10.47v2.42h27.26v-2.42h-10.47v-8.56h36.2Zm-73.82-5.04V6.43h68.93V43.97h-68.93Z"/><g><rect class="e" x="93.66" y="31.2" width="25.24" height="4.31"/><polygon class="e" points="117.14 39.37 127.57 33.36 117.14 27.33 117.14 39.37"/></g></g></g><g id="d"><g><g><path class="e" d="M6.17,26.24c1.3,0,2.5-.4,3.49-1.09v.72c0,.21,.17,.37,.37,.37h2.06c.21,0,.37-.17,.37-.37V14.53c0-.21-.17-.37-.37-.37h-2.06c-.21,0-.37,.17-.37,.37v.45c-1.16-.8-2.6-1.21-4.14-1.05C2.67,14.22,.35,16.52,.04,19.37c-.41,3.71,2.5,6.87,6.13,6.87Zm0-9.53c1.85,0,3.36,1.51,3.36,3.36s-1.51,3.36-3.36,3.36-3.36-1.51-3.36-3.36,1.51-3.36,3.36-3.36Z"/><rect class="e" x="21.2" y="13.9" width="4.2" height="12.35" rx=".37" ry=".37"/><rect class="e" x="47.05" y="13.9" width="4.2" height="12.35" rx=".37" ry=".37"/><rect class="e" x="34.13" width="4.2" height="26.43" rx=".37" ry=".37"/><path class="e" d="M72.08,14.16h-2.06c-.21,0-.37,.17-.37,.37v.45c-1.16-.8-2.6-1.21-4.14-1.05-2.85,.29-5.17,2.59-5.48,5.44-.41,3.71,2.5,6.87,6.13,6.87,1.3,0,2.5-.4,3.49-1.09v.72c0,.21,.17,.37,.37,.37h2.06c.21,0,.37-.17,.37-.37V14.53c0-.21-.17-.37-.37-.37Zm-5.92,9.27c-1.85,0-3.36-1.51-3.36-3.36s1.51-3.36,3.36-3.36,3.36,1.51,3.36,3.36-1.51,3.36-3.36,3.36Z"/><path class="e" d="M70.6,33.35H1.85C.83,33.35,0,34.18,0,35.21v22.94C0,59.17,.83,60,1.85,60H70.6c1.02,0,1.85-.83,1.85-1.85v-22.94c0-1.02-.83-1.85-1.85-1.85ZM26.85,51.76c-.72,.7-1.61,1.05-2.67,1.05-1.01,0-1.84-.3-2.5-.89-.65-.6-1.05-1.44-1.21-2.52l1.77-.39c.08,.68,.22,1.15,.42,1.41,.36,.5,.89,.75,1.58,.75,.55,0,1-.18,1.36-.55s.54-.83,.54-1.39c0-.23-.03-.43-.09-.62-.06-.19-.16-.36-.29-.52-.13-.16-.3-.31-.51-.44s-.46-.27-.75-.39l-1.12-.47c-1.59-.67-2.38-1.65-2.38-2.95,0-.87,.33-1.6,1-2.19,.67-.59,1.5-.89,2.49-.89,1.34,0,2.38,.65,3.14,1.95l-1.42,.84c-.27-.46-.52-.76-.76-.9-.25-.16-.57-.24-.97-.24-.49,0-.89,.14-1.21,.41-.32,.27-.48,.61-.48,1.02,0,.57,.42,1.02,1.26,1.37l1.16,.47c.94,.38,1.63,.85,2.07,1.39,.44,.55,.65,1.22,.65,2.02,0,1.07-.36,1.95-1.07,2.65Zm11.21-.63c-.63,.55-1.28,.93-1.97,1.15-.64,.22-1.55,.32-2.73,.32h-2.41v-11.61h2.44c1.17,0,2.09,.12,2.77,.35,.73,.23,1.39,.61,1.98,1.15,1.2,1.09,1.8,2.53,1.8,4.31s-.62,3.23-1.87,4.33Zm11.29,1.47l-4.18-5.16-.36,.36v4.8h-1.75v-11.61h1.75v4.63l4.52-4.63h2.34l-5.25,5.25,5.28,6.35h-2.35Z"/><path class="e" d="M33.49,42.64h-.79v8.31h.79c.79,0,1.44-.08,1.96-.25,.52-.18,.99-.45,1.41-.83,.86-.79,1.29-1.81,1.29-3.07s-.43-2.31-1.28-3.1c-.77-.71-1.9-1.06-3.39-1.06Z"/></g><path class="e" d="M223.17,49.02V1.38h-78.71V49.02h36.2v8.56h-10.47v2.42h27.26v-2.42h-10.47v-8.56h36.2Zm-73.82-5.04V6.43h68.93V43.97h-68.93Z"/><g><rect class="e" x="93.66" y="31.2" width="25.24" height="4.31"/><polygon class="e" points="117.14 39.37 127.57 33.36 117.14 27.33 117.14 39.37"/></g></g></g></g></svg>