<?xml version="1.0" encoding="UTF-8"?>
<svg id="icon" xmlns="http://www.w3.org/2000/svg" viewBox="0 0 18.16 12.11">
  <path d="M15.13,1.01c0,1.11.9,2.02,2.02,2.02v-1.01c0-.56-.45-1.01-1.01-1.01h-1.01,0ZM14.12,1.01H4.04c0,1.67-1.36,3.02-3.02,3.02v4.04c1.67,0,3.02,1.36,3.02,3.02h10.09c0-1.67,1.36-3.02,3.02-3.02v-4.04c-1.67,0-3.02-1.36-3.02-3.02ZM1.01,10.09c0,.56.45,1.01,1.01,1.01h1.01c0-1.11-.9-2.02-2.02-2.02v1.01h0ZM17.15,9.08c-1.11,0-2.02.9-2.02,2.02h1.01c.56,0,1.01-.45,1.01-1.01v-1.01h0ZM2.02,1.01c-.56,0-1.01.45-1.01,1.01v1.01c1.11,0,2.02-.9,2.02-2.02h-1.01,0ZM0,2.02C0,.9.9,0,2.02,0h14.12c1.11,0,2.02.9,2.02,2.02v8.07c0,1.11-.9,2.02-2.02,2.02H2.02c-1.11,0-2.02-.9-2.02-2.02V2.02ZM11.1,6.05c0-.27-.05-.53-.16-.78-.1-.25-.25-.46-.44-.66-.19-.19-.41-.33-.66-.44-.25-.1-.51-.15-.77-.15s-.53.05-.77.15c-.25.1-.46.25-.66.44-.19.19-.33.41-.44.66-.1.25-.16.51-.16.78s.05.53.16.77c.1.25.25.47.44.66.19.19.41.33.66.44.25.1.51.16.77.16s.53-.05.77-.16c.25-.1.46-.25.66-.44.19-.19.33-.41.44-.66.1-.25.16-.51.16-.77ZM6.05,6.05c0-.2.02-.4.06-.59s.1-.38.17-.57c.08-.18.17-.36.28-.52.11-.17.24-.32.38-.46.14-.14.29-.26.46-.38.17-.11.34-.2.52-.28.18-.08.37-.13.57-.17.19-.04.39-.06.59-.06s.4.02.59.06c.19.04.38.1.57.17.18.08.36.17.52.28.17.11.32.24.46.38.14.14.26.3.38.46.11.17.2.34.28.52.08.18.13.37.17.57.04.19.06.39.06.59s-.02.39-.06.59c-.04.2-.1.38-.17.57-.08.18-.17.36-.28.52-.11.17-.24.32-.38.46-.14.14-.3.26-.46.38-.17.11-.34.2-.52.28-.18.08-.37.13-.57.17-.19.04-.39.06-.59.06s-.4-.02-.59-.06c-.19-.04-.38-.1-.57-.17-.18-.08-.36-.17-.52-.28-.17-.11-.32-.24-.46-.38-.14-.14-.26-.29-.38-.46-.11-.17-.2-.34-.28-.52-.08-.18-.13-.37-.17-.57-.04-.19-.06-.39-.06-.59"/>
</svg>