<?xml version="1.0" encoding="UTF-8"?><svg id="_レイヤー_2" xmlns="http://www.w3.org/2000/svg" width="800.17" height="51.06" viewBox="0 0 800.17 51.06"><defs><style>.cls-1{fill:#fff;}</style></defs><g id="_レイヤー_1-2"><path class="cls-1" d="m41.13,9.83c-.47.68-1.56,2.5-2.13,3.8-1.72,3.85-4.47,9.05-7.85,13.73,5.04,4.37,11.28,10.97,14.14,14.51l-7.23,6.29c-3.33-4.73-7.75-9.72-12.43-14.25-5.46,5.67-12.27,10.92-19.08,14.2l-6.55-6.81c8.42-3.07,16.64-9.46,21.27-14.61,3.38-3.85,6.19-8.42,7.28-11.75H12.38c-2.34,0-5.2.31-6.66.42V6.4c1.82.26,5.15.42,6.66.42h17.37c2.6,0,5.04-.36,6.24-.78l5.15,3.8Zm35.93-5.88c-1.14,1.61-2.34,3.64-3.12,4.99h8.63c1.72,0,3.8-.26,5.15-.68l6.34,3.95c-.68,1.14-1.46,2.7-2.03,4.26-1.35,3.85-3.85,9.15-7.44,14.25,2.24,1.61,4.26,3.12,5.72,4.26l-6.03,7.18c-1.35-1.25-3.22-2.86-5.36-4.58-4.47,4.63-10.19,8.84-17.89,11.8l-7.33-6.34c8.94-2.81,14.4-6.71,18.41-10.66-3.12-2.29-6.19-4.42-8.53-5.93l5.62-5.77c2.39,1.4,5.41,3.28,8.42,5.25,2.29-3.33,4.26-7.18,4.94-9.88h-13.36c-3.8,4.94-8.79,9.93-13.68,13.31l-6.81-5.25c9.2-5.67,13.73-12.43,16.48-16.8.94-1.46,2.18-4.16,2.76-6.19l9.1,2.81Zm22.09,16.43c2.08.16,6.45.36,9,.36h27.61c2.34,0,4.89-.26,6.4-.36v9.93c-1.35-.05-4.26-.31-6.4-.31h-27.61c-2.96,0-6.86.16-9,.31v-9.93Zm56.63,19.76V10.45c0-2.08-.21-4.78-.62-6.76h9.83c-.21,1.98-.52,4.26-.52,6.76v7.12c7.02,2.03,17.11,5.72,21.48,7.85l-3.59,8.79c-5.25-2.7-12.38-5.46-17.89-7.44v13.36c0,1.4.31,5.51.57,7.85h-9.88c.36-2.24.62-5.72.62-7.85Zm82.01-30c-.62.78-1.82,2.29-2.34,3.12-2.65,4.37-7.59,10.87-12.27,14.25l-6.5-5.2c3.85-2.44,7.44-6.4,8.58-8.58h-25.69c-2.29,0-3.9.16-6.6.42V5.46c2.13.31,4.32.57,6.6.57h26.99c1.72,0,5.15-.21,6.24-.52l4.99,4.63Zm-21.42,7.07c0,12.22.26,23.45-14.4,31.62l-7.33-5.98c1.82-.62,3.74-1.51,5.93-3.17,5.77-4.37,7.07-8.79,7.07-17.26,0-1.82-.1-3.33-.42-5.2h9.15Zm43.62-3.28c1.04,2.29,3.59,9.05,4.37,11.49l-7.54,2.6c-.73-2.6-2.91-8.74-4.32-11.65l7.49-2.44Zm19.4,4.26c-.73,2.03-1.09,3.28-1.46,4.52-1.35,4.99-3.54,10.3-6.97,14.77-4.84,6.34-11.39,10.87-17.63,13.26l-6.6-6.76c5.51-1.4,13.1-5.36,17.42-10.82,3.43-4.32,5.88-11.39,6.34-17.84l8.89,2.86Zm-31.46-1.46c1.46,2.91,3.85,8.94,4.89,11.96l-7.7,2.86c-.88-2.81-3.38-9.62-4.78-12.12l7.59-2.7Zm73.91-9.98c0,1.51,1.25,2.76,2.76,2.76s2.76-1.25,2.76-2.76-1.25-2.76-2.76-2.76-2.76,1.25-2.76,2.76Zm-3.69,0c0-3.54,2.91-6.45,6.45-6.45s6.45,2.91,6.45,6.45-2.91,6.45-6.29,6.45c-.26.78-.47,1.56-.62,2.18-1.25,4.89-3.38,12.79-7.85,18.82-4.68,6.29-12.01,11.65-21.16,14.61l-6.86-7.54c10.45-2.34,16.33-6.92,20.44-12.01,3.33-4.11,5.04-9.26,5.72-13.42h-22.88c-2.55,0-5.41.16-6.76.26V7.23c1.61.21,5.04.47,6.76.47h22.93c.88,0,2.34-.05,3.74-.26-.05-.21-.05-.42-.05-.68Zm60.27,20.23c0,10.97-6.45,18.98-19.97,21.27l-4.78-7.49c2.18-.26,3.59-.57,5.1-.94,6.6-1.61,11.02-6.24,11.02-13.1s-3.28-11.49-9.26-12.9c-.68,4.21-1.61,8.74-3.07,13.57-3.07,10.4-7.75,17.37-13.88,17.37-6.45,0-11.34-6.97-11.34-15.86,0-12.38,10.66-22.88,24.54-22.88s21.63,9.15,21.63,20.96Zm-38.01,1.09c0,4.52,1.56,6.86,3.38,6.86,2.08,0,3.64-3.17,5.51-9.2,1.14-3.54,2.03-7.64,2.65-11.7-7.7,2.08-11.54,9.1-11.54,14.04Zm58.88-.73h-5.36c-.1,2.65-.31,5.51-.68,8.42,1.56.16,2.91.21,3.74.21.68,0,1.14-.16,1.56-.68.42-.62.62-2.76.73-7.96Zm21.68-9.83l7.64,1.82c-2.18,6.81-5.2,12.95-8.94,18.2,1.14,2.96,2.44,4.68,3.69,4.68,1.04,0,1.66-2.6,1.92-8.94,1.72,1.77,4.37,3.54,6.4,4.32-1.14,10.14-3.59,12.32-8.94,12.32-3.43,0-6.24-2.24-8.48-5.98-2.34,2.34-4.94,4.42-7.7,6.19-1.09-1.61-3.85-4.78-5.46-6.24,3.74-2.03,7.07-4.68,9.88-7.85-1.77-5.82-2.86-13-3.48-20.49h-13.52v4.94h12.74s-.05,1.82-.05,2.65c-.16,10.61-.42,15.39-1.66,17.06-1.14,1.51-2.34,2.03-3.9,2.34-1.4.26-3.59.31-5.98.31-.1-2.13-.88-4.99-1.92-6.86-.73,5.51-2.18,11.08-4.84,15.08-1.3-1.51-4.73-4.32-6.45-5.2,3.85-6.14,4.11-15.34,4.11-22.15v-15.6h21.01c-.1-2.39-.16-4.78-.16-7.18h7.96c-.05,2.39-.05,4.78.05,7.18h5.88c-1.61-1.25-3.59-2.6-5.2-3.59l4.58-4.52c2.65,1.4,6.29,3.69,8.11,5.41l-2.6,2.7h5.51v7.44h-15.86c.36,4.26.94,8.37,1.66,11.96,1.61-3.07,2.96-6.4,4-9.98Zm52.98,14.35h-9.36c.94,1.56,2.08,2.96,3.33,4.21,2.08-1.25,4.27-2.81,6.03-4.21Zm3.38,0l4.22,2.96c-2.6,1.87-5.57,3.69-8.27,5.2,2.96,1.56,6.45,2.76,10.55,3.48-1.66,1.61-3.79,4.78-4.78,6.81-11.7-2.76-18.15-8.74-22.46-18.46h-5.15v9.57c3.27-.47,6.65-.94,9.93-1.35l.36,6.66c-7.85,1.2-16.32,2.39-22.67,3.28l-1.66-6.92c1.87-.21,3.95-.42,6.24-.68v-10.56h-8.42v-6.6h8.48V2.5h33.33v6.14h-25.58v1.77h24.28v5.77h-24.28v1.66h24.28v5.77h-24.28v1.66h31.3v6.6h-5.41Zm33.19-28.6c-.2,1.14-.57,2.76-1.14,4.73,4.68-.26,9.62-.68,13.99-1.46l-.05,7.28c-4.84.62-11.24,1.09-16.75,1.3-.67,1.35-1.35,2.65-2.03,3.69,1.04-.31,3.7-.52,5.15-.52,3.07,0,5.57,1.25,6.92,3.64,2.08-.99,3.79-1.66,5.61-2.5,2.29-.99,4.42-1.98,6.66-3.07l3.07,7.28c-1.82.52-5.1,1.72-7.07,2.5-1.98.78-4.53,1.77-7.28,2.96.05,2.86.15,6.34.2,8.68h-7.48c.1-1.35.2-3.28.26-5.25-3.28,1.92-4.68,3.64-4.68,5.72,0,2.18,1.61,3.07,6.5,3.07,4.62,0,10.55-.62,15.13-1.61l-.26,8.11c-3.17.47-9.88.94-15.03.94-8.53,0-14.66-2.24-14.66-9.15s6.18-11.13,11.96-14.14c-.78-.83-1.88-1.09-2.86-1.09-2.66,0-5.88,1.72-7.65,3.48-1.56,1.61-3.07,3.48-4.83,5.88l-6.71-5.04c4.89-4.37,8.58-8.63,11.13-13.42-2.14,0-5.93-.1-8.69-.36v-7.28c2.6.42,6.55.62,9.36.62h2.03c.47-1.92.78-3.9.88-5.67l8.32.68Zm43.41,14.04h-3.85c-.36,9.41-1.3,17.58-3.95,24.28,1.82.16,3.38.21,4.32.21.78,0,1.24-.26,1.76-1.04.99-1.35,1.36-7.44,1.72-23.45Zm-3.69-7.38h11.13s0,2.39-.06,3.33c-.46,21.74-.83,30-2.49,32.5-1.35,1.98-2.55,2.65-4.37,3.07-1.61.42-3.9.42-6.34.36-.11-2.08-.89-5.2-2.03-7.33-1.25,3.12-2.86,5.93-4.94,8.42-1.15-1.87-3.64-4.47-5.51-5.67,5.51-6.5,6.81-15.6,7.12-27.3h-5.41v-7.38h5.51V1.66h7.44c0,2.86,0,5.62-.05,8.27Zm20.54,28.34h4.78V13.83h-4.78v24.44Zm-7.23-31.72h19.6v42.12h-7.59v-3.12h-4.78v3.54h-7.23V6.55Zm63.86,12.27h-4.22v3.33h4.22v-3.33Zm-15.5,0v3.33h3.95v-3.33h-3.95Zm3.95-5.67v-2.03h-12.22v-6.24h12.22V.94h7.33v3.95h13v6.24h-13v2.03h11.55v14.61h-9.05c3.07,2.7,7.49,5.2,11.54,6.71-1.66,1.4-3.95,4.11-5.09,5.93-3.07-1.61-6.24-4.11-8.95-6.86v7.44h-7.33v-7.85c-2.6,3.07-5.77,5.67-9.15,7.38-1.04-1.72-3.22-4.37-4.78-5.72,4-1.51,8-4.11,10.6-7.02h-7.54v-14.61h10.87Zm-12.95-3.33l-6.03,4.99c-1.51-2.39-5.15-5.88-8.11-8.22l5.62-4.52c2.96,2.13,6.76,5.36,8.52,7.75Zm-1.19,11.18v16.33c1.92,3.22,5.46,4.52,10.55,4.73,6.35.26,18.2.1,25.69-.57-.83,1.82-2.03,5.46-2.39,7.7-6.6.36-16.95.47-23.45.16-6.19-.26-10.3-1.56-13.73-5.56-2.13,1.87-4.32,3.74-7.12,5.98l-3.64-7.9c2.13-1.2,4.52-2.65,6.7-4.21v-9.67h-5.35v-6.97h12.74Zm60.28-12.58c-.42-1.25-1.09-3.28-1.82-5.2l8.47-.99c.58,2.81,1.25,5.36,2.03,7.7,3.64-.57,6.97-1.3,10.19-2.24l.99,7.9c-2.39.68-5.3,1.25-8.42,1.72,1.4,3.07,2.96,5.77,4,7.28.99,1.46,2.03,2.7,3.07,3.9l-3.8,5.62c-3.17-.57-9.88-1.3-14.61-1.72l.63-6.66c2.34.21,5.56.47,7.02.57-1.3-2.24-2.76-5.1-4.11-8.11-6.09.47-13.21.52-22.41-.21l-.11-8.06c7.85.94,14.25,1.14,19.66.83-.26-.88-.52-1.66-.78-2.34Zm-7.07,19.86c-1.77,2.44-2.6,4.78-2.6,6.92,0,4.06,3.53,5.72,10.34,5.72,5.88,0,10.51-.57,14.2-1.25l-.47,7.96c-2.81.52-7.64,1.25-14.25,1.25-11.07,0-17.99-4.42-17.99-12.17,0-3.33.94-6.45,2.86-10.24l7.91,1.82Zm69.11-24.13c-.15.78-.31,3.38-.36,4.89-.05,1.82-.11,3.33-.11,4.73.99-.05,1.98-.16,2.86-.21,1.46-.1,3.8-.26,5.52-.42v7.64c-.99-.05-4.16.05-5.57.1-.88.05-1.87.1-2.96.16-.16,4.06-.37,8.06-.78,10.14-.63,3.02-2.03,3.69-4.84,3.69-1.82,0-6.34-.52-8.37-.83l.16-6.92c1.5.31,3.64.62,4.57.62s1.3-.16,1.41-1.09c.15-1.25.26-3.02.31-5.04-4.16.36-8.74.83-12.74,1.25-.05,4.42-.05,8.89,0,11.18.1,4.84.73,5.51,7.85,5.51,4.78,0,11.44-.62,15.6-1.4l-.31,8.63c-3.49.42-9.88.83-14.67.83-14.24,0-16.17-2.86-16.38-12.27-.05-2.24-.05-6.97-.05-11.65-.93.1-1.71.21-2.34.26-1.66.21-5.46.78-6.81.99l-.83-7.96c1.4,0,4.05-.1,7.12-.42.68-.05,1.67-.16,2.86-.26v-4.11c0-2.5-.21-4.58-.47-6.55h8.9c-.26,2.03-.37,3.54-.37,6.08,0,.88,0,2.24-.05,3.8,4-.36,8.53-.78,12.79-1.14v-4.99c0-1.4-.26-4.21-.41-5.25h8.47Zm28.39,34.68c0,1.61,1.71,2.76,4.37,2.76.83,0,1.61-.05,2.34-.1-.26-2.86-1.82-4.73-4.01-4.73-1.71,0-2.7,1.04-2.7,2.08Zm-10.04-33.85c1.61.21,3.59.31,5.31.31,2.8,0,13.2-.16,16.27-.42,2.5-.21,3.95-.42,4.63-.62l3.9,5.56c-1.35.83-2.7,1.61-4,2.55-2.92,1.98-7.49,5.72-10.35,7.9,1.35-.26,2.39-.31,3.64-.31,8.94,0,15.96,5.72,15.96,13.57s-5.87,15.24-19.34,15.24c-7.33,0-13.42-3.43-13.42-9.15,0-4.58,4.16-8.84,10.09-8.84,6.34,0,10.4,3.69,11.28,8.63,2.08-1.4,3.07-3.43,3.07-5.98,0-4.47-4.57-7.28-10.29-7.28-7.6,0-13.06,4.58-18.05,10.66l-5.72-5.93c3.33-2.6,9.41-7.75,12.48-10.3,2.91-2.39,7.75-6.14,10.25-8.37-2.6.05-7.96.26-10.77.47-1.56.1-3.43.26-4.68.47l-.26-8.16Zm49.09,27.35c4.83,0,8.68,3.9,8.68,8.68s-3.85,8.68-8.68,8.68-8.69-3.9-8.69-8.68,3.9-8.68,8.69-8.68Zm0,13c2.39,0,4.31-1.92,4.31-4.32s-1.92-4.32-4.31-4.32-4.32,1.92-4.32,4.32,1.98,4.32,4.32,4.32Z"/></g></svg>