<?xml version="1.0" encoding="UTF-8"?><svg id="_レイヤー_2" xmlns="http://www.w3.org/2000/svg" width="524.84" height="49.71" viewBox="0 0 524.84 49.71"><defs><style>.cls-1{fill:#fff;}</style></defs><g id="_レイヤー_1-2"><path class="cls-1" d="m28.34,26.21h5.36v-6.71h-5.36v6.71Zm13,8.94h-7.64v-1.92h-5.36v1.92h-7.64v-15.65h-5.62v19.55h31.98v7.28H15.08v3.02h-7.8v-29.85H0v-7.28h7.28V1.61h7.8v10.61h5.62V.52h7.64v11.7h5.36V.99h7.64v11.23h7.59v7.28h-7.59v15.65Zm23.76-19.14v2.7h7.49v-2.7h-7.49Zm0-8.22v2.65h7.49v-2.65h-7.49Zm22.67,2.65v-2.65h-7.54v2.65h7.54Zm-7.54,8.27h7.54v-2.7h-7.54v2.7Zm15.44,6.03h-7.38c3.48,2.65,8.06,4.73,13.05,5.93-1.66,1.51-3.95,4.47-5.04,6.45-2.81-.94-5.41-2.13-7.8-3.69v15.7h-7.9v-18.51h4.06c-2.08-1.77-3.95-3.74-5.51-5.88h-5.04c-1.61,2.08-3.43,4-5.51,5.72h4.37v3.8c0,4.99-1.61,11.8-12.22,15.44-.99-1.82-3.48-4.73-5.15-6.19,8.42-2.44,9.57-6.5,9.57-9.57v-.94c-2.6,1.77-5.46,3.17-8.42,4.26-1.09-1.82-3.38-4.68-4.99-6.19,4.78-1.35,9.36-3.64,12.79-6.34h-6.97V1.77h38.12v22.98Zm42.43-17.16v-1.25h-19.86v1.25h19.86Zm0,5.72v-1.3h-19.86v1.3h19.86Zm7.59-11.7v16.43h-34.68V1.61h34.68Zm-4.37,30.52h-4.94c.68,1.3,1.56,2.5,2.55,3.64.94-1.14,1.72-2.34,2.39-3.64Zm-25.69,7.64l5.36-.31v-1.35h-5.36v1.66Zm0-8.16v1.4h5.36v-1.4h-5.36Zm5.36-6.34h-5.36v1.25h5.36v-1.25Zm24.7.99l4.68,1.72c-1.3,4.89-3.33,8.89-5.98,12.17,2.44,1.46,5.3,2.55,8.48,3.28-1.51,1.35-3.48,4.11-4.42,5.88-3.43-.99-6.45-2.44-9.05-4.32-2.39,1.82-5.1,3.28-8.06,4.47-.68-1.4-1.92-3.38-3.12-4.84v4.73h-7.23v-3.74c-5.77.42-11.54.83-16.07,1.2l-.47-6.45c1.3-.05,2.76-.1,4.32-.21v-14.87h-3.85v-5.93h46.85v5.93h-23.56v17.99c2.18-.78,4.21-1.87,6.03-3.17-1.66-2.03-3.02-4.32-4.21-6.86l3.95-1.09h-4.84v-5.67h15.29l1.25-.21Zm49.24-8.37h-4.21v3.33h4.21v-3.33Zm-15.5,0v3.33h3.95v-3.33h-3.95Zm3.95-5.67v-2.03h-12.22V3.95h12.22V0h7.33v3.95h13v6.24h-13v2.03h11.54v14.61h-9.05c3.07,2.7,7.49,5.2,11.54,6.71-1.66,1.4-3.95,4.11-5.1,5.93-3.07-1.61-6.24-4.11-8.94-6.86v7.44h-7.33v-7.85c-2.6,3.07-5.77,5.67-9.15,7.38-1.04-1.72-3.22-4.37-4.78-5.72,4-1.51,8.01-4.11,10.61-7.02h-7.54v-14.61h10.87Zm-12.95-3.33l-6.03,4.99c-1.51-2.39-5.15-5.88-8.11-8.22l5.62-4.52c2.96,2.13,6.76,5.36,8.53,7.75Zm-1.2,11.18v16.33c1.92,3.22,5.46,4.52,10.56,4.73,6.34.26,18.2.1,25.69-.57-.83,1.82-2.03,5.46-2.39,7.7-6.6.36-16.95.47-23.45.16-6.19-.26-10.3-1.56-13.73-5.56-2.13,1.87-4.32,3.74-7.12,5.98l-3.64-7.9c2.13-1.2,4.52-2.65,6.71-4.21v-9.67h-5.36v-6.97h12.74Zm44.56,22.05c.73-1.56.78-2.55.78-3.85V10.92c0-2.29-.31-4.84-.68-6.55h9.88c-.36,2.39-.57,4.26-.57,6.55v25.64c7.64-2.34,18.98-8.89,25.74-16.9l4.47,7.18c-7.33,8.58-18.2,14.66-30.06,18.82-.78.26-2.13.68-3.59,1.66l-5.98-5.2ZM291.56,7.9c1.56,2.34,3.74,6.03,4.89,8.37l-5.56,2.39c-1.66-3.59-2.7-5.67-4.73-8.53l5.41-2.24Zm7.12-2.96c1.61,2.24,3.9,5.82,5.04,8.11l-5.41,2.6c-1.82-3.59-2.96-5.51-4.99-8.27l5.36-2.44Zm-43.21,24.02c1.66-1.35,2.91-2.55,4.63-4.26,2.29-2.29,6.08-7.02,9.83-11.49,3.28-3.9,6.71-4.47,11.02-.42,3.69,3.48,7.38,7.33,10.56,10.76,3.48,3.74,8.89,9.52,12.9,13.78l-6.97,7.49c-3.38-4.21-7.64-9.62-10.56-13.1-3.07-3.69-7.54-8.68-9.26-10.45-1.51-1.51-2.65-1.46-3.95.26-1.82,2.39-5.1,7.18-7.07,9.98-1.25,1.82-2.55,3.8-3.54,5.3l-7.59-7.85Zm75.32,14.25c.26-1.09.47-2.7.47-4.32V9.05c0-2.55-.47-4.84-.47-4.84h9.36s-.42,2.34-.42,4.89v25.58c3.9-1.61,8.32-5.36,11.54-9.93l4.84,6.97c-4.21,5.36-11.8,11.13-17.58,14.09-1.25.68-1.92,1.3-2.5,1.72l-5.25-4.32Zm-24.23-1.04c4.73-3.28,7.38-8.16,8.74-12.27,1.46-4.26,1.51-13.83,1.51-20.33,0-2.44-.21-3.95-.57-5.36h9.26s-.42,2.76-.42,5.25c0,6.4-.16,17.26-1.51,22.52-1.61,6.03-4.78,11.18-9.31,15.29l-7.7-5.1Zm98.82-16.12c0,10.97-6.45,18.98-19.97,21.27l-4.78-7.49c2.18-.26,3.59-.57,5.1-.94,6.6-1.61,11.02-6.24,11.02-13.1s-3.28-11.49-9.26-12.9c-.68,4.21-1.61,8.74-3.07,13.57-3.07,10.4-7.75,17.37-13.88,17.37-6.45,0-11.34-6.97-11.34-15.86,0-12.38,10.66-22.88,24.54-22.88s21.63,9.15,21.63,20.96Zm-38.01,1.09c0,4.52,1.56,6.86,3.38,6.86,2.08,0,3.64-3.17,5.51-9.2,1.14-3.54,2.03-7.64,2.65-11.7-7.7,2.08-11.54,9.1-11.54,14.04Zm54.46-2.08l-.83,3.28h7.9l-.83-3.28c-1.04-3.85-2.03-8.48-3.07-12.43h-.21c-.94,4.06-1.98,8.58-2.96,12.43Zm-14.3,19.34l12.01-38.74h11.13l12.01,38.74h-9.78l-2.24-8.89h-11.44l-2.24,8.89h-9.46Zm39.22,0V5.67h9.31v38.74h-9.31Zm14.7-36.45c2.08-.05,4.37-.16,5.36-.26,4.89-.42,12.74-1.04,22.26-1.87,5.2-.42,11.34-.78,15.13-.94l.05,8.11c-2.7.05-7.12.05-9.98.62-5.62,1.25-10.45,7.33-10.45,13.52,0,7.64,7.18,10.66,16.17,11.18l-2.96,8.74c-11.6-.88-21.53-7.18-21.53-18.25,0-7.12,3.8-12.64,6.6-15.18-4.47.47-13.62,1.51-19.86,2.91l-.78-8.58Zm35.41,9.41c1.3,1.92,3.12,5.04,4.06,6.97l-4.63,2.03c-1.4-3.02-2.29-4.73-3.95-7.12l4.52-1.87Zm5.88-2.5c1.35,1.87,3.28,4.89,4.32,6.76l-4.58,2.18c-1.51-2.96-2.5-4.58-4.21-6.92l4.47-2.03Zm15.4,33.49c-3.07-3.74-7.44-8.22-11.02-11.39l6.6-5.67c3.64,3.02,8.84,8.37,11.13,11.28l-6.71,5.77Z"/></g></svg>