<?xml version="1.0" encoding="UTF-8"?>
<svg id="Layer_1" data-name="Layer 1" xmlns="http://www.w3.org/2000/svg" viewBox="0 0 253.39 222.68">
  <defs>
    <style>
      .cls-1 {
        fill: #fefdfe;
      }

      .cls-1, .cls-2, .cls-3 {
        stroke-width: 0px;
      }

      .cls-2 {
        fill: #fefdfd;
      }

      .cls-3 {
        fill: #051854;
      }
    </style>
  </defs>
  <path class="cls-3" d="m144.58.16c.55.17.83,1.15.78,1.72l-.53,36.28c14.53.59,28.91,3.3,42.74,7.52,1.07-.16,5.33-5.87,6.49-7.05,5.26-5.33,16.28-15.78,23.65-16.85s10.03,3.6,10.61,10.13c1.17,13.07-1.82,26.78-4.47,39.47,1.86,3.07,4.41,5.66,6.19,8.81,4.24,7.49,7.93,18.4,9.64,26.86,2.86,14.16,2.2,28.7,1.7,43.05,1.68-.11,11.81,4.73,11.97,5.37.11.47-.09,1.14-.02,1.68-4.51.43-8.4-2.96-12.96-2.45l-2.01,9.13c.19.59,9.57,4.15,11.11,5.29,1.19.89.64,2.4-.79,2.42-2.18.03-10.98-3.98-12.31-2.84-5.76,18.28-20.82,28.48-38.55,33.7-9.95,2.93-15.03.18-10.99,14.25-5.69.72-11.24,2.54-16.9,3.36-15.59,2.26-33.11,2.64-48.87,2.67-14.2.03-69.45-5.37-81.68-12.76-7.93-4.79-16.34-8.73-24.13-13.22-9.28-5.35-18.12-12.78-14.37-24.59,7.31-22.96,34.56-15.4,41.82,3.24.76,1.94,1.67,10.03,2.56,10.72l30.57,14.58c.2-1.15-.06-.8-.64-1.12-1.17-.65-2.96-1-4.3-1.7-13.87-7.21-23.49-17.83-27.58-33.17-.78-.69-10.08,3.38-10.98,2.48-2.21-2.21,7.89-6.1,9.43-6.56.28-.44-1.08-9.6-1.5-9.87-1.57-.98-7.64,2.14-9.82,2.34-2.05.18-2.09-1.42-.59-2.63,1.4-1.13,9.37-4.1,9.5-4.61.36-7.82-.55-16.14-.01-23.91,1.16-16.85,6.43-34.76,16.99-48.04-2.52-13.48-6.22-27.58-4.99-41.45.59-6.65,3.05-11.68,10.61-10.63,10.22,1.42,23.14,16.7,29.88,24.13l.75.26c14.25-4.8,29.19-7.46,44.25-8.02l-1.04-36.77.12-.65c.36-.07.99-.58,1.17-.58,1.64,0,6.4-.34,7.5,0h0Zm-63.75,51.99c.61-.87-8.31-9.73-9.49-10.74-3.02-2.59-11.7-9.83-12.5-1.99-.91,8.86,1.36,18.71,3.5,27.25l18.49-14.51h0Zm131.85-15.84c-2.6-2.19-8.98,3.07-11.09,4.86-1.9,1.61-11.44,11.56-11.76,13.25-.81,4.26,2.68,4.86,5,6.98,1.86,1.69,9.36,10.02,10.77,10.26,1.97.34,3.55-.96,4.26-2.72,1.85-4.54,4.84-22.69,4.45-27.53-.1-1.31-.67-4.29-1.64-5.1h.01Zm-147.47,61.98c-13.1,1.78-20.88,17.73-9.12,26.86,11.69,9.07,32.87-.55,28.99-15.99-2.26-8.99-11.34-12.02-19.87-10.87Zm80.5,0c-11.28,1.53-16.97,14.09-9.59,23.33,13.52,16.94,42.05.61,28.71-16.71-4.39-5.7-12.24-7.56-19.12-6.62Zm-43,21c-14.71,2.12-16.64,16.34-26.13,23.87-7.15,5.67-15.21,8.56-17.89,18.61-6.19,23.26,16.74,37.79,36.46,41.32,24.82,4.45,74.3,2.21,77.18-31.18,1.99-23.12-27.63-30.82-41.96-41.53-9.37-7-13.96-13.06-27.65-11.09h-.01ZM29.57,184.69c.18,1.67-6.16,2.24-7.57,3.44-4.47,3.8-2.26,6.99,2.51,8.56,4.74,1.56,8.02,1.09,11.83-2.21,17.94-15.51-12.64-45.34-27.39-30.44-4.47,4.52-8.02,10.96-5.94,17.43,1.16,3.61,7.79,9.33,11.03,11.45.38.25,4.41,2.58,4.06,1.23-.75-2.85-1.02-4.93,1.6-7.16,1.03-.87,9.61-4.66,9.86-2.3h.01Z"/>
  <path class="cls-3" d="m185.77,40.6c-1.4.89-4.74-1.54-5.81-1.82-1.48-.39-2.89-.14-4.77-.73-3.27-1.03-6.33-3.64-6.82-7.18-1.36-9.79,7.71-14.65,16.23-11.73,1.39.48,2.58,1.58,3.6,1.9,1.81.57,7.94.25,6.24,3.48l-8.68,16.08h0Zm-7.59-16.83c-6.41,1.46-5.44,10,1.34,9.37,7.89-.74,6.61-11.18-1.34-9.37Z"/>
  <path class="cls-3" d="m110.29,35.62c-1.75,1.22-4.73.3-6.08.63-1.71.41-3.15,2.25-6.15,2.42-8.62.48-18.8-9.87-10.5-17.53,3.66-3.38,6.12-1.81,9.99-2.51,1.7-.3,4.23-2.38,6.46-1.93.46.15,3.14,7.25,3.56,8.47.48,1.38,3.18,9.8,2.72,10.45Zm-9.59-3.59c4.06-3.77-2.32-11.29-8.05-7.29-6.23,4.35,3.56,11.46,8.05,7.29Z"/>
  <path class="cls-3" d="m124.28,13.21l3.08,19.12c-.16.7-6.27,1.87-7.29.84-.68-.68-4.5-17.78-4.2-18.7.52-1.59,6.93-1.4,8.42-1.27h-.01Z"/>
  <path class="cls-3" d="m165.33,13.66l-4.05,19.2c-1.32,1.81-5.45-.25-7.44-.22l3.05-19.41,8.43.43h0Z"/>
  <path class="cls-1" d="m102.71,119.29c13.69-1.97,18.28,4.08,27.65,11.09,14.33,10.71,43.95,18.41,41.96,41.53-2.87,33.4-52.36,35.63-77.18,31.18-19.72-3.53-42.65-18.06-36.46-41.32,2.68-10.05,10.74-12.94,17.89-18.61,9.49-7.53,11.43-21.75,26.13-23.87h.01Zm-4.88,17.87c1.26-1.32-3.52-5.97-5.49-4.99-.98,2.19,4.64,5.89,5.49,4.99Zm15.5-5c-2.78-.36-6.03,2.11-5.99,4.99,1.06,1.03,6.72-2.79,5.99-4.99Zm-9.57,9.07c-.49-.31-2.32-.16-2.72.4-.75,1.05.19,5.45-.32,7.18-.3,1-3.86,3.99-4.93,4.57-2.25,1.22-4.14,1.55-6.72,1.28-1.96-.21-6.65-3.85-6.27.23.24,2.6,5.19,2.66,6.39,3.41.41.25,2.48,3.59,3.63,4.62,6.77,6.06,19.42,7.28,24.92-1.09.63-.96,1.51-3.93,1.68-4.07.5-.43,6.57-.98,5.85-3.75s-4.56.23-6.32.53c-4.84.83-10.06-1.5-13.82-4.44-1.85-1.44.02-8.01-1.37-8.87Z"/>
  <path class="cls-2" d="m29.57,184.69c-.26-2.36-8.84,1.43-9.86,2.3-2.62,2.24-2.35,4.31-1.6,7.16.35,1.34-3.68-.99-4.06-1.23-3.24-2.13-9.87-7.85-11.03-11.45-2.09-6.47,1.47-12.91,5.94-17.43,14.75-14.9,45.33,14.93,27.39,30.44-3.81,3.29-7.1,3.77-11.83,2.21-4.77-1.57-6.98-4.76-2.51-8.56,1.41-1.2,7.76-1.78,7.57-3.44h-.01Z"/>
  <path class="cls-2" d="m145.71,98.29c6.88-.94,14.73.93,19.12,6.62,13.35,17.32-15.19,33.64-28.71,16.71-7.38-9.24-1.7-21.79,9.59-23.33Zm5.49,6.49c-9.11,1.53-8.69,15.96.51,17.26,12.75,1.8,13.14-19.55-.51-17.26Z"/>
  <path class="cls-2" d="m65.21,98.29c8.53-1.16,17.62,1.87,19.87,10.87,3.87,15.45-17.3,25.06-28.99,15.99-11.77-9.13-3.98-25.08,9.12-26.86Zm4.99,6.49c-9.53,1.6-8.12,18.53,2.83,17.35,11.39-1.23,9.79-19.47-2.83-17.35Z"/>
  <path class="cls-1" d="m212.68,36.31c.97.82,1.53,3.8,1.64,5.1.38,4.84-2.6,22.99-4.45,27.53-.72,1.76-2.3,3.06-4.26,2.72-1.41-.24-8.91-8.57-10.77-10.26-2.32-2.12-5.81-2.72-5-6.98.32-1.69,9.86-11.64,11.76-13.25,2.11-1.79,8.49-7.05,11.09-4.86h0Z"/>
  <path class="cls-2" d="m80.83,52.15l-18.49,14.51c-2.14-8.54-4.41-18.39-3.5-27.25.8-7.84,9.48-.6,12.5,1.99,1.18,1.01,10.11,9.87,9.49,10.74h0Z"/>
  <path class="cls-2" d="m178.18,23.77c7.95-1.81,9.22,8.63,1.34,9.37-6.77.63-7.74-7.91-1.34-9.37Z"/>
  <path class="cls-2" d="m100.7,32.03c-4.48,4.16-14.27-2.95-8.05-7.29,5.72-4,12.11,3.52,8.05,7.29Z"/>
  <path class="cls-3" d="m103.76,141.23c1.39.87-.47,7.43,1.37,8.87,3.76,2.94,8.98,5.27,13.82,4.44,1.76-.3,5.57-3.42,6.32-.53s-5.36,3.32-5.85,3.75c-.17.14-1.04,3.11-1.68,4.07-5.5,8.37-18.15,7.15-24.92,1.09-1.15-1.03-3.23-4.36-3.63-4.62-1.2-.75-6.15-.81-6.39-3.41-.37-4.07,4.31-.44,6.27-.23,2.58.27,4.47-.06,6.72-1.28,1.07-.58,4.63-3.57,4.93-4.57.51-1.73-.43-6.13.32-7.18.4-.56,2.23-.71,2.72-.4Z"/>
  <path class="cls-3" d="m113.33,132.16c.73,2.21-4.93,6.02-5.99,4.99-.04-2.89,3.22-5.36,5.99-4.99Z"/>
  <path class="cls-3" d="m97.83,137.16c-.86.9-6.47-2.81-5.49-4.99,1.98-.97,6.75,3.68,5.49,4.99Z"/>
  <path class="cls-3" d="m151.2,104.78c13.64-2.29,13.25,19.06.51,17.26-9.2-1.3-9.62-15.73-.51-17.26Z"/>
  <path class="cls-3" d="m70.2,104.78c12.62-2.12,14.21,16.12,2.83,17.35-10.94,1.18-12.36-15.74-2.83-17.35Z"/>
</svg>